<?xml version="1.0" encoding="UTF-8" standalone="no"?>
<!DOCTYPE svg PUBLIC "-//W3C//DTD SVG 1.1//EN"
 "http://www.w3.org/Graphics/SVG/1.1/DTD/svg11.dtd">
<!-- Generated by graphviz version 2.46.0 (20210119.1425)
 -->
<!-- Title: dependencies Pages: 1 -->
<svg width="504pt" height="211pt"
 viewBox="0.00 0.00 504.00 211.00" xmlns="http://www.w3.org/2000/svg" xmlns:xlink="http://www.w3.org/1999/xlink">
<g id="graph0" class="graph" transform="scale(1 1) rotate(0) translate(4 207)">
<title>dependencies</title>
<polygon fill="white" stroke="transparent" points="-4,4 -4,-207 500,-207 500,4 -4,4"/>
<text text-anchor="start" x="227.01" y="-42.4" font-family="sans-serif" font-weight="bold" font-size="14.00">Legend</text>
<polygon fill="#ffffb3" stroke="transparent" points="14,-10 14,-30 34,-30 34,-10 14,-10"/>
<text text-anchor="start" x="37.63" y="-15.4" font-family="sans-serif" font-size="14.00"> &#160;Declarations</text>
<polygon fill="#8dd3c7" stroke="transparent" points="127,-10 127,-30 147,-30 147,-10 127,-10"/>
<text text-anchor="start" x="150.73" y="-15.4" font-family="sans-serif" font-size="14.00"> &#160;Module</text>
<polygon fill="#80b1d3" stroke="transparent" points="213,-10 213,-30 233,-30 233,-10 213,-10"/>
<text text-anchor="start" x="236.78" y="-15.4" font-family="sans-serif" font-size="14.00"> &#160;Bootstrap</text>
<polygon fill="#fdb462" stroke="transparent" points="310,-10 310,-30 330,-30 330,-10 310,-10"/>
<text text-anchor="start" x="333.67" y="-15.4" font-family="sans-serif" font-size="14.00"> &#160;Providers</text>
<polygon fill="#fb8072" stroke="transparent" points="406,-10 406,-30 426,-30 426,-10 406,-10"/>
<text text-anchor="start" x="429.73" y="-15.4" font-family="sans-serif" font-size="14.00"> &#160;Exports</text>
<g id="clust1" class="cluster">
<title>cluster_ErrorModule</title>
<polygon fill="none" stroke="black" stroke-dasharray="1,5" points="102,-70 102,-195 394,-195 394,-70 102,-70"/>
</g>
<g id="clust4" class="cluster">
<title>cluster_ErrorModule_imports</title>
<polygon fill="none" stroke="black" points="272,-78 272,-130 386,-130 386,-78 272,-78"/>
</g>
<g id="clust2" class="cluster">
<title>cluster_ErrorModule_declarations</title>
<polygon fill="none" stroke="black" points="110,-78 110,-130 264,-130 264,-78 110,-78"/>
</g>
<!-- ErrorPageComponent -->
<g id="node1" class="node">
<title>ErrorPageComponent</title>
<polygon fill="#ffffb3" stroke="black" points="256.08,-122 117.92,-122 117.92,-86 256.08,-86 256.08,-122"/>
<text text-anchor="middle" x="187" y="-99.8" font-family="Times,serif" font-size="14.00">ErrorPageComponent</text>
</g>
<!-- ErrorModule -->
<g id="node2" class="node">
<title>ErrorModule</title>
<polygon fill="#8dd3c7" stroke="black" points="302.58,-187 299.58,-191 278.58,-191 275.58,-187 213.42,-187 213.42,-151 302.58,-151 302.58,-187"/>
<text text-anchor="middle" x="258" y="-164.8" font-family="Times,serif" font-size="14.00">ErrorModule</text>
</g>
<!-- ErrorPageComponent&#45;&gt;ErrorModule -->
<g id="edge1" class="edge">
<title>ErrorPageComponent&#45;&gt;ErrorModule</title>
<path fill="none" stroke="black" d="M234.75,-122.11C234.75,-122.11 234.75,-140.99 234.75,-140.99"/>
<polygon fill="black" stroke="black" points="231.25,-140.99 234.75,-150.99 238.25,-140.99 231.25,-140.99"/>
</g>
<!-- SharedModule -->
<g id="node3" class="node">
<title>SharedModule</title>
<polygon fill="#8dd3c7" stroke="black" points="378.42,-122 375.42,-126 354.42,-126 351.42,-122 279.58,-122 279.58,-86 378.42,-86 378.42,-122"/>
<text text-anchor="middle" x="329" y="-99.8" font-family="Times,serif" font-size="14.00">SharedModule</text>
</g>
<!-- SharedModule&#45;&gt;ErrorModule -->
<g id="edge2" class="edge">
<title>SharedModule&#45;&gt;ErrorModule</title>
<path fill="none" stroke="black" d="M291.17,-122.11C291.17,-122.11 291.17,-140.99 291.17,-140.99"/>
<polygon fill="black" stroke="black" points="287.67,-140.99 291.17,-150.99 294.67,-140.99 287.67,-140.99"/>
</g>
</g>
</svg>
