<?xml version="1.0" encoding="UTF-8" standalone="no"?>
<!DOCTYPE svg PUBLIC "-//W3C//DTD SVG 1.1//EN"
 "http://www.w3.org/Graphics/SVG/1.1/DTD/svg11.dtd">
<!-- Generated by graphviz version 2.40.1 (20161225.0304)
 -->
<!-- Title: dependencies Pages: 1 -->
<svg width="504pt" height="211pt"
 viewBox="0.00 0.00 504.00 211.00" xmlns="http://www.w3.org/2000/svg" xmlns:xlink="http://www.w3.org/1999/xlink">
<g id="graph0" class="graph" transform="scale(1 1) rotate(0) translate(4 207)">
<title>dependencies</title>
<polygon fill="#ffffff" stroke="transparent" points="-4,4 -4,-207 500,-207 500,4 -4,4"/>
<text text-anchor="start" x="227.0091" y="-42.4" font-family="sans-serif" font-weight="bold" font-size="14.00" fill="#000000">Legend</text>
<polygon fill="#ffffb3" stroke="transparent" points="14,-10 14,-30 34,-30 34,-10 14,-10"/>
<text text-anchor="start" x="37.629" y="-15.4" font-family="sans-serif" font-size="14.00" fill="#000000"> &#160;Declarations</text>
<polygon fill="#8dd3c7" stroke="transparent" points="127,-10 127,-30 147,-30 147,-10 127,-10"/>
<text text-anchor="start" x="150.7251" y="-15.4" font-family="sans-serif" font-size="14.00" fill="#000000"> &#160;Module</text>
<polygon fill="#80b1d3" stroke="transparent" points="213,-10 213,-30 233,-30 233,-10 213,-10"/>
<text text-anchor="start" x="236.7812" y="-15.4" font-family="sans-serif" font-size="14.00" fill="#000000"> &#160;Bootstrap</text>
<polygon fill="#fdb462" stroke="transparent" points="310,-10 310,-30 330,-30 330,-10 310,-10"/>
<text text-anchor="start" x="333.6732" y="-15.4" font-family="sans-serif" font-size="14.00" fill="#000000"> &#160;Providers</text>
<polygon fill="#fb8072" stroke="transparent" points="406,-10 406,-30 426,-30 426,-10 406,-10"/>
<text text-anchor="start" x="429.7258" y="-15.4" font-family="sans-serif" font-size="14.00" fill="#000000"> &#160;Exports</text>
<g id="clust1" class="cluster">
<title>cluster_ErrorModule</title>
<polygon fill="none" stroke="#000000" stroke-dasharray="1,5" points="102,-70 102,-195 394,-195 394,-70 102,-70"/>
</g>
<g id="clust2" class="cluster">
<title>cluster_ErrorModule_declarations</title>
<polygon fill="none" stroke="#000000" points="232,-78 232,-130 386,-130 386,-78 232,-78"/>
</g>
<g id="clust4" class="cluster">
<title>cluster_ErrorModule_imports</title>
<polygon fill="none" stroke="#000000" points="110,-78 110,-130 224,-130 224,-78 110,-78"/>
</g>
<!-- ErrorPageComponent -->
<g id="node1" class="node">
<title>ErrorPageComponent</title>
<polygon fill="#ffffb3" stroke="#000000" points="378.0786,-122 239.9214,-122 239.9214,-86 378.0786,-86 378.0786,-122"/>
<text text-anchor="middle" x="309" y="-99.8" font-family="Times,serif" font-size="14.00" fill="#000000">ErrorPageComponent</text>
</g>
<!-- ErrorModule -->
<g id="node2" class="node">
<title>ErrorModule</title>
<polygon fill="#8dd3c7" stroke="#000000" points="282.5842,-187 279.5842,-191 258.5842,-191 255.5842,-187 193.4158,-187 193.4158,-151 282.5842,-151 282.5842,-187"/>
<text text-anchor="middle" x="238" y="-164.8" font-family="Times,serif" font-size="14.00" fill="#000000">ErrorModule</text>
</g>
<!-- ErrorPageComponent&#45;&gt;ErrorModule -->
<g id="edge1" class="edge">
<title>ErrorPageComponent&#45;&gt;ErrorModule</title>
<path fill="none" stroke="#000000" d="M261.2514,-122.1061C261.2514,-122.1061 261.2514,-140.991 261.2514,-140.991"/>
<polygon fill="#000000" stroke="#000000" points="257.7515,-140.9909 261.2514,-150.991 264.7515,-140.991 257.7515,-140.9909"/>
</g>
<!-- SharedModule -->
<g id="node3" class="node">
<title>SharedModule</title>
<polygon fill="#8dd3c7" stroke="#000000" points="216.4231,-122 213.4231,-126 192.4231,-126 189.4231,-122 117.5769,-122 117.5769,-86 216.4231,-86 216.4231,-122"/>
<text text-anchor="middle" x="167" y="-99.8" font-family="Times,serif" font-size="14.00" fill="#000000">SharedModule</text>
</g>
<!-- SharedModule&#45;&gt;ErrorModule -->
<g id="edge2" class="edge">
<title>SharedModule&#45;&gt;ErrorModule</title>
<path fill="none" stroke="#000000" d="M204.8345,-122.1061C204.8345,-122.1061 204.8345,-140.991 204.8345,-140.991"/>
<polygon fill="#000000" stroke="#000000" points="201.3346,-140.9909 204.8345,-150.991 208.3346,-140.991 201.3346,-140.9909"/>
</g>
</g>
</svg>
