<?xml version="1.0" encoding="UTF-8" standalone="no"?>
<!DOCTYPE svg PUBLIC "-//W3C//DTD SVG 1.1//EN"
 "http://www.w3.org/Graphics/SVG/1.1/DTD/svg11.dtd">
<!-- Generated by graphviz version 2.46.0 (20210119.1425)
 -->
<!-- Title: dependencies Pages: 1 -->
<svg width="504pt" height="211pt"
 viewBox="0.00 0.00 504.00 211.00" xmlns="http://www.w3.org/2000/svg" xmlns:xlink="http://www.w3.org/1999/xlink">
<g id="graph0" class="graph" transform="scale(1 1) rotate(0) translate(4 207)">
<title>dependencies</title>
<polygon fill="white" stroke="transparent" points="-4,4 -4,-207 500,-207 500,4 -4,4"/>
<text text-anchor="start" x="227.01" y="-42.4" font-family="sans-serif" font-weight="bold" font-size="14.00">Legend</text>
<polygon fill="#ffffb3" stroke="transparent" points="14,-10 14,-30 34,-30 34,-10 14,-10"/>
<text text-anchor="start" x="37.63" y="-15.4" font-family="sans-serif" font-size="14.00"> &#160;Declarations</text>
<polygon fill="#8dd3c7" stroke="transparent" points="127,-10 127,-30 147,-30 147,-10 127,-10"/>
<text text-anchor="start" x="150.73" y="-15.4" font-family="sans-serif" font-size="14.00"> &#160;Module</text>
<polygon fill="#80b1d3" stroke="transparent" points="213,-10 213,-30 233,-30 233,-10 213,-10"/>
<text text-anchor="start" x="236.78" y="-15.4" font-family="sans-serif" font-size="14.00"> &#160;Bootstrap</text>
<polygon fill="#fdb462" stroke="transparent" points="310,-10 310,-30 330,-30 330,-10 310,-10"/>
<text text-anchor="start" x="333.67" y="-15.4" font-family="sans-serif" font-size="14.00"> &#160;Providers</text>
<polygon fill="#fb8072" stroke="transparent" points="406,-10 406,-30 426,-30 426,-10 406,-10"/>
<text text-anchor="start" x="429.73" y="-15.4" font-family="sans-serif" font-size="14.00"> &#160;Exports</text>
<g id="clust1" class="cluster">
<title>cluster_ErrorModule</title>
<polygon fill="none" stroke="black" stroke-dasharray="1,5" points="102,-70 102,-195 394,-195 394,-70 102,-70"/>
</g>
<g id="clust2" class="cluster">
<title>cluster_ErrorModule_declarations</title>
<polygon fill="none" stroke="black" points="232,-78 232,-130 386,-130 386,-78 232,-78"/>
</g>
<g id="clust4" class="cluster">
<title>cluster_ErrorModule_imports</title>
<polygon fill="none" stroke="black" points="110,-78 110,-130 224,-130 224,-78 110,-78"/>
</g>
<!-- ErrorPageComponent -->
<g id="node1" class="node">
<title>ErrorPageComponent</title>
<polygon fill="#ffffb3" stroke="black" points="378.08,-122 239.92,-122 239.92,-86 378.08,-86 378.08,-122"/>
<text text-anchor="middle" x="309" y="-99.8" font-family="Times,serif" font-size="14.00">ErrorPageComponent</text>
</g>
<!-- ErrorModule -->
<g id="node2" class="node">
<title>ErrorModule</title>
<polygon fill="#8dd3c7" stroke="black" points="282.58,-187 279.58,-191 258.58,-191 255.58,-187 193.42,-187 193.42,-151 282.58,-151 282.58,-187"/>
<text text-anchor="middle" x="238" y="-164.8" font-family="Times,serif" font-size="14.00">ErrorModule</text>
</g>
<!-- ErrorPageComponent&#45;&gt;ErrorModule -->
<g id="edge1" class="edge">
<title>ErrorPageComponent&#45;&gt;ErrorModule</title>
<path fill="none" stroke="black" d="M261.25,-122.11C261.25,-122.11 261.25,-140.99 261.25,-140.99"/>
<polygon fill="black" stroke="black" points="257.75,-140.99 261.25,-150.99 264.75,-140.99 257.75,-140.99"/>
</g>
<!-- SharedModule -->
<g id="node3" class="node">
<title>SharedModule</title>
<polygon fill="#8dd3c7" stroke="black" points="216.42,-122 213.42,-126 192.42,-126 189.42,-122 117.58,-122 117.58,-86 216.42,-86 216.42,-122"/>
<text text-anchor="middle" x="167" y="-99.8" font-family="Times,serif" font-size="14.00">SharedModule</text>
</g>
<!-- SharedModule&#45;&gt;ErrorModule -->
<g id="edge2" class="edge">
<title>SharedModule&#45;&gt;ErrorModule</title>
<path fill="none" stroke="black" d="M204.83,-122.11C204.83,-122.11 204.83,-140.99 204.83,-140.99"/>
<polygon fill="black" stroke="black" points="201.33,-140.99 204.83,-150.99 208.33,-140.99 201.33,-140.99"/>
</g>
</g>
</svg>
