<?xml version="1.0" encoding="UTF-8" standalone="no"?>
<!DOCTYPE svg PUBLIC "-//W3C//DTD SVG 1.1//EN"
 "http://www.w3.org/Graphics/SVG/1.1/DTD/svg11.dtd">
<!-- Generated by graphviz version 2.46.0 (20210119.1425)
 -->
<!-- Title: dependencies Pages: 1 -->
<svg width="504pt" height="284pt"
 viewBox="0.00 0.00 504.00 284.00" xmlns="http://www.w3.org/2000/svg" xmlns:xlink="http://www.w3.org/1999/xlink">
<g id="graph0" class="graph" transform="scale(1 1) rotate(0) translate(4 280)">
<title>dependencies</title>
<polygon fill="white" stroke="transparent" points="-4,4 -4,-280 500,-280 500,4 -4,4"/>
<text text-anchor="start" x="227.01" y="-42.4" font-family="sans-serif" font-weight="bold" font-size="14.00">Legend</text>
<polygon fill="#ffffb3" stroke="transparent" points="14,-10 14,-30 34,-30 34,-10 14,-10"/>
<text text-anchor="start" x="37.63" y="-15.4" font-family="sans-serif" font-size="14.00"> &#160;Declarations</text>
<polygon fill="#8dd3c7" stroke="transparent" points="127,-10 127,-30 147,-30 147,-10 127,-10"/>
<text text-anchor="start" x="150.73" y="-15.4" font-family="sans-serif" font-size="14.00"> &#160;Module</text>
<polygon fill="#80b1d3" stroke="transparent" points="213,-10 213,-30 233,-30 233,-10 213,-10"/>
<text text-anchor="start" x="236.78" y="-15.4" font-family="sans-serif" font-size="14.00"> &#160;Bootstrap</text>
<polygon fill="#fdb462" stroke="transparent" points="310,-10 310,-30 330,-30 330,-10 310,-10"/>
<text text-anchor="start" x="333.67" y="-15.4" font-family="sans-serif" font-size="14.00"> &#160;Providers</text>
<polygon fill="#fb8072" stroke="transparent" points="406,-10 406,-30 426,-30 426,-10 406,-10"/>
<text text-anchor="start" x="429.73" y="-15.4" font-family="sans-serif" font-size="14.00"> &#160;Exports</text>
<g id="clust1" class="cluster">
<title>cluster_AppServerModule</title>
<polygon fill="none" stroke="black" stroke-dasharray="1,5" points="87,-70 87,-268 409,-268 409,-70 87,-70"/>
</g>
<g id="clust3" class="cluster">
<title>cluster_AppServerModule_imports</title>
<polygon fill="none" stroke="black" points="301,-78 301,-130 401,-130 401,-78 301,-78"/>
</g>
<g id="clust5" class="cluster">
<title>cluster_AppServerModule_bootstrap</title>
<polygon fill="none" stroke="black" points="204,-208 204,-260 328,-260 328,-208 204,-208"/>
</g>
<g id="clust6" class="cluster">
<title>cluster_AppServerModule_providers</title>
<polygon fill="none" stroke="black" points="95,-78 95,-130 293,-130 293,-78 95,-78"/>
</g>
<!-- AppModule -->
<g id="node1" class="node">
<title>AppModule</title>
<polygon fill="#8dd3c7" stroke="black" points="392.66,-122 389.66,-126 368.66,-126 365.66,-122 309.34,-122 309.34,-86 392.66,-86 392.66,-122"/>
<text text-anchor="middle" x="351" y="-99.8" font-family="Times,serif" font-size="14.00">AppModule</text>
</g>
<!-- AppServerModule -->
<g id="node2" class="node">
<title>AppServerModule</title>
<polygon fill="#8dd3c7" stroke="black" points="326.19,-187 323.19,-191 302.19,-191 299.19,-187 205.81,-187 205.81,-151 326.19,-151 326.19,-187"/>
<text text-anchor="middle" x="266" y="-164.8" font-family="Times,serif" font-size="14.00">AppServerModule</text>
</g>
<!-- AppModule&#45;&gt;AppServerModule -->
<g id="edge1" class="edge">
<title>AppModule&#45;&gt;AppServerModule</title>
<path fill="none" stroke="black" d="M317.63,-122.11C317.63,-122.11 317.63,-140.99 317.63,-140.99"/>
<polygon fill="black" stroke="black" points="314.13,-140.99 317.63,-150.99 321.13,-140.99 314.13,-140.99"/>
</g>
<!-- AppComponent  -->
<g id="node3" class="node">
<title>AppComponent </title>
<polygon fill="#80b1d3" stroke="black" points="320.44,-252 211.56,-252 211.56,-216 320.44,-216 320.44,-252"/>
<text text-anchor="middle" x="266" y="-229.8" font-family="Times,serif" font-size="14.00">AppComponent </text>
</g>
<!-- AppServerModule&#45;&gt;AppComponent  -->
<g id="edge2" class="edge">
<title>AppServerModule&#45;&gt;AppComponent </title>
<path fill="none" stroke="black" stroke-dasharray="1,5" d="M266,-187.11C266,-187.11 266,-205.99 266,-205.99"/>
<polygon fill="black" stroke="black" points="262.5,-205.99 266,-215.99 269.5,-205.99 262.5,-205.99"/>
</g>
<!-- UniversalInterceptor -->
<g id="node4" class="node">
<title>UniversalInterceptor</title>
<ellipse fill="#fdb462" stroke="black" cx="194" cy="-104" rx="90.87" ry="18"/>
<text text-anchor="middle" x="194" y="-99.8" font-family="Times,serif" font-size="14.00">UniversalInterceptor</text>
</g>
<!-- UniversalInterceptor&#45;&gt;AppServerModule -->
<g id="edge3" class="edge">
<title>UniversalInterceptor&#45;&gt;AppServerModule</title>
<path fill="none" stroke="black" d="M245.42,-119.08C245.42,-119.08 245.42,-140.76 245.42,-140.76"/>
<polygon fill="black" stroke="black" points="241.92,-140.76 245.42,-150.76 248.92,-140.76 241.92,-140.76"/>
</g>
</g>
</svg>
