<?xml version="1.0" encoding="UTF-8" standalone="no"?>
<!DOCTYPE svg PUBLIC "-//W3C//DTD SVG 1.1//EN"
 "http://www.w3.org/Graphics/SVG/1.1/DTD/svg11.dtd">
<!-- Generated by graphviz version 2.46.0 (20210119.1425)
 -->
<!-- Title: dependencies Pages: 1 -->
<svg width="639pt" height="211pt"
 viewBox="0.00 0.00 639.00 211.00" xmlns="http://www.w3.org/2000/svg" xmlns:xlink="http://www.w3.org/1999/xlink">
<g id="graph0" class="graph" transform="scale(1 1) rotate(0) translate(4 207)">
<title>dependencies</title>
<polygon fill="white" stroke="transparent" points="-4,4 -4,-207 635,-207 635,4 -4,4"/>
<text text-anchor="start" x="294.51" y="-42.4" font-family="sans-serif" font-weight="bold" font-size="14.00">Legend</text>
<polygon fill="#ffffb3" stroke="transparent" points="81.5,-10 81.5,-30 101.5,-30 101.5,-10 81.5,-10"/>
<text text-anchor="start" x="105.13" y="-15.4" font-family="sans-serif" font-size="14.00"> &#160;Declarations</text>
<polygon fill="#8dd3c7" stroke="transparent" points="194.5,-10 194.5,-30 214.5,-30 214.5,-10 194.5,-10"/>
<text text-anchor="start" x="218.23" y="-15.4" font-family="sans-serif" font-size="14.00"> &#160;Module</text>
<polygon fill="#80b1d3" stroke="transparent" points="280.5,-10 280.5,-30 300.5,-30 300.5,-10 280.5,-10"/>
<text text-anchor="start" x="304.28" y="-15.4" font-family="sans-serif" font-size="14.00"> &#160;Bootstrap</text>
<polygon fill="#fdb462" stroke="transparent" points="377.5,-10 377.5,-30 397.5,-30 397.5,-10 377.5,-10"/>
<text text-anchor="start" x="401.17" y="-15.4" font-family="sans-serif" font-size="14.00"> &#160;Providers</text>
<polygon fill="#fb8072" stroke="transparent" points="473.5,-10 473.5,-30 493.5,-30 493.5,-10 473.5,-10"/>
<text text-anchor="start" x="497.23" y="-15.4" font-family="sans-serif" font-size="14.00"> &#160;Exports</text>
<g id="clust1" class="cluster">
<title>cluster_HomeModule</title>
<polygon fill="none" stroke="black" stroke-dasharray="1,5" points="8,-70 8,-195 623,-195 623,-70 8,-70"/>
</g>
<g id="clust4" class="cluster">
<title>cluster_HomeModule_imports</title>
<polygon fill="none" stroke="black" points="344,-78 344,-130 615,-130 615,-78 344,-78"/>
</g>
<g id="clust2" class="cluster">
<title>cluster_HomeModule_declarations</title>
<polygon fill="none" stroke="black" points="178,-78 178,-130 336,-130 336,-78 178,-78"/>
</g>
<g id="clust7" class="cluster">
<title>cluster_HomeModule_providers</title>
<polygon fill="none" stroke="black" points="16,-78 16,-130 170,-130 170,-78 16,-78"/>
</g>
<!-- HomePageComponent -->
<g id="node1" class="node">
<title>HomePageComponent</title>
<polygon fill="#ffffb3" stroke="black" points="328.26,-122 185.74,-122 185.74,-86 328.26,-86 328.26,-122"/>
<text text-anchor="middle" x="257" y="-99.8" font-family="Times,serif" font-size="14.00">HomePageComponent</text>
</g>
<!-- HomeModule -->
<g id="node2" class="node">
<title>HomeModule</title>
<polygon fill="#8dd3c7" stroke="black" points="375.76,-187 372.76,-191 351.76,-191 348.76,-187 282.24,-187 282.24,-151 375.76,-151 375.76,-187"/>
<text text-anchor="middle" x="329" y="-164.8" font-family="Times,serif" font-size="14.00">HomeModule</text>
</g>
<!-- HomePageComponent&#45;&gt;HomeModule -->
<g id="edge1" class="edge">
<title>HomePageComponent&#45;&gt;HomeModule</title>
<path fill="none" stroke="black" d="M305.25,-122.11C305.25,-122.11 305.25,-140.99 305.25,-140.99"/>
<polygon fill="black" stroke="black" points="301.75,-140.99 305.25,-150.99 308.75,-140.99 301.75,-140.99"/>
</g>
<!-- HomeRoutingModule -->
<g id="node3" class="node">
<title>HomeRoutingModule</title>
<polygon fill="#8dd3c7" stroke="black" points="607.38,-122 604.38,-126 583.38,-126 580.38,-122 468.62,-122 468.62,-86 607.38,-86 607.38,-122"/>
<text text-anchor="middle" x="538" y="-99.8" font-family="Times,serif" font-size="14.00">HomeRoutingModule</text>
</g>
<!-- HomeRoutingModule&#45;&gt;HomeModule -->
<g id="edge2" class="edge">
<title>HomeRoutingModule&#45;&gt;HomeModule</title>
<path fill="none" stroke="black" d="M538,-122.11C538,-141.34 538,-169 538,-169 538,-169 385.9,-169 385.9,-169"/>
<polygon fill="black" stroke="black" points="385.9,-165.5 375.9,-169 385.9,-172.5 385.9,-165.5"/>
</g>
<!-- SharedModule -->
<g id="node4" class="node">
<title>SharedModule</title>
<polygon fill="#8dd3c7" stroke="black" points="450.42,-122 447.42,-126 426.42,-126 423.42,-122 351.58,-122 351.58,-86 450.42,-86 450.42,-122"/>
<text text-anchor="middle" x="401" y="-99.8" font-family="Times,serif" font-size="14.00">SharedModule</text>
</g>
<!-- SharedModule&#45;&gt;HomeModule -->
<g id="edge3" class="edge">
<title>SharedModule&#45;&gt;HomeModule</title>
<path fill="none" stroke="black" d="M363.83,-122.11C363.83,-122.11 363.83,-140.99 363.83,-140.99"/>
<polygon fill="black" stroke="black" points="360.33,-140.99 363.83,-150.99 367.33,-140.99 360.33,-140.99"/>
</g>
<!-- EntitiesService -->
<g id="node5" class="node">
<title>EntitiesService</title>
<ellipse fill="#fdb462" stroke="black" cx="93" cy="-104" rx="69.49" ry="18"/>
<text text-anchor="middle" x="93" y="-99.8" font-family="Times,serif" font-size="14.00">EntitiesService</text>
</g>
<!-- EntitiesService&#45;&gt;HomeModule -->
<g id="edge4" class="edge">
<title>EntitiesService&#45;&gt;HomeModule</title>
<path fill="none" stroke="black" d="M93,-122.11C93,-141.34 93,-169 93,-169 93,-169 272.09,-169 272.09,-169"/>
<polygon fill="black" stroke="black" points="272.09,-172.5 282.09,-169 272.09,-165.5 272.09,-172.5"/>
</g>
</g>
</svg>
