<?xml version="1.0" encoding="UTF-8" standalone="no"?>
<!DOCTYPE svg PUBLIC "-//W3C//DTD SVG 1.1//EN"
 "http://www.w3.org/Graphics/SVG/1.1/DTD/svg11.dtd">
<!-- Generated by graphviz version 2.40.1 (20161225.0304)
 -->
<!-- Title: dependencies Pages: 1 -->
<svg width="645pt" height="211pt"
 viewBox="0.00 0.00 645.00 211.00" xmlns="http://www.w3.org/2000/svg" xmlns:xlink="http://www.w3.org/1999/xlink">
<g id="graph0" class="graph" transform="scale(1 1) rotate(0) translate(4 207)">
<title>dependencies</title>
<polygon fill="#ffffff" stroke="transparent" points="-4,4 -4,-207 641,-207 641,4 -4,4"/>
<text text-anchor="start" x="297.5091" y="-42.4" font-family="sans-serif" font-weight="bold" font-size="14.00" fill="#000000">Legend</text>
<polygon fill="#ffffb3" stroke="transparent" points="84.5,-10 84.5,-30 104.5,-30 104.5,-10 84.5,-10"/>
<text text-anchor="start" x="108.129" y="-15.4" font-family="sans-serif" font-size="14.00" fill="#000000"> &#160;Declarations</text>
<polygon fill="#8dd3c7" stroke="transparent" points="197.5,-10 197.5,-30 217.5,-30 217.5,-10 197.5,-10"/>
<text text-anchor="start" x="221.2251" y="-15.4" font-family="sans-serif" font-size="14.00" fill="#000000"> &#160;Module</text>
<polygon fill="#80b1d3" stroke="transparent" points="283.5,-10 283.5,-30 303.5,-30 303.5,-10 283.5,-10"/>
<text text-anchor="start" x="307.2812" y="-15.4" font-family="sans-serif" font-size="14.00" fill="#000000"> &#160;Bootstrap</text>
<polygon fill="#fdb462" stroke="transparent" points="380.5,-10 380.5,-30 400.5,-30 400.5,-10 380.5,-10"/>
<text text-anchor="start" x="404.1732" y="-15.4" font-family="sans-serif" font-size="14.00" fill="#000000"> &#160;Providers</text>
<polygon fill="#fb8072" stroke="transparent" points="476.5,-10 476.5,-30 496.5,-30 496.5,-10 476.5,-10"/>
<text text-anchor="start" x="500.2258" y="-15.4" font-family="sans-serif" font-size="14.00" fill="#000000"> &#160;Exports</text>
<g id="clust1" class="cluster">
<title>cluster_HomeModule</title>
<polygon fill="none" stroke="#000000" stroke-dasharray="1,5" points="8,-70 8,-195 629,-195 629,-70 8,-70"/>
</g>
<g id="clust2" class="cluster">
<title>cluster_HomeModule_declarations</title>
<polygon fill="none" stroke="#000000" points="463,-78 463,-130 621,-130 621,-78 463,-78"/>
</g>
<g id="clust4" class="cluster">
<title>cluster_HomeModule_imports</title>
<polygon fill="none" stroke="#000000" points="184,-78 184,-130 455,-130 455,-78 184,-78"/>
</g>
<g id="clust7" class="cluster">
<title>cluster_HomeModule_providers</title>
<polygon fill="none" stroke="#000000" points="16,-78 16,-130 176,-130 176,-78 16,-78"/>
</g>
<!-- HomePageComponent -->
<g id="node1" class="node">
<title>HomePageComponent</title>
<polygon fill="#ffffb3" stroke="#000000" points="613.2562,-122 470.7438,-122 470.7438,-86 613.2562,-86 613.2562,-122"/>
<text text-anchor="middle" x="542" y="-99.8" font-family="Times,serif" font-size="14.00" fill="#000000">HomePageComponent</text>
</g>
<!-- HomeModule -->
<g id="node2" class="node">
<title>HomeModule</title>
<polygon fill="#8dd3c7" stroke="#000000" points="355.7619,-187 352.7619,-191 331.7619,-191 328.7619,-187 262.2381,-187 262.2381,-151 355.7619,-151 355.7619,-187"/>
<text text-anchor="middle" x="309" y="-164.8" font-family="Times,serif" font-size="14.00" fill="#000000">HomeModule</text>
</g>
<!-- HomePageComponent&#45;&gt;HomeModule -->
<g id="edge1" class="edge">
<title>HomePageComponent&#45;&gt;HomeModule</title>
<path fill="none" stroke="#000000" d="M542,-122.1061C542,-141.3391 542,-169 542,-169 542,-169 365.8707,-169 365.8707,-169"/>
<polygon fill="#000000" stroke="#000000" points="365.8708,-165.5001 355.8707,-169 365.8707,-172.5001 365.8708,-165.5001"/>
</g>
<!-- HomeRoutingModule -->
<g id="node3" class="node">
<title>HomeRoutingModule</title>
<polygon fill="#8dd3c7" stroke="#000000" points="447.3795,-122 444.3795,-126 423.3795,-126 420.3795,-122 308.6205,-122 308.6205,-86 447.3795,-86 447.3795,-122"/>
<text text-anchor="middle" x="378" y="-99.8" font-family="Times,serif" font-size="14.00" fill="#000000">HomeRoutingModule</text>
</g>
<!-- HomeRoutingModule&#45;&gt;HomeModule -->
<g id="edge2" class="edge">
<title>HomeRoutingModule&#45;&gt;HomeModule</title>
<path fill="none" stroke="#000000" d="M332.2206,-122.1061C332.2206,-122.1061 332.2206,-140.991 332.2206,-140.991"/>
<polygon fill="#000000" stroke="#000000" points="328.7206,-140.9909 332.2206,-150.991 335.7206,-140.991 328.7206,-140.9909"/>
</g>
<!-- SharedModule -->
<g id="node4" class="node">
<title>SharedModule</title>
<polygon fill="#8dd3c7" stroke="#000000" points="290.4231,-122 287.4231,-126 266.4231,-126 263.4231,-122 191.5769,-122 191.5769,-86 290.4231,-86 290.4231,-122"/>
<text text-anchor="middle" x="241" y="-99.8" font-family="Times,serif" font-size="14.00" fill="#000000">SharedModule</text>
</g>
<!-- SharedModule&#45;&gt;HomeModule -->
<g id="edge3" class="edge">
<title>SharedModule&#45;&gt;HomeModule</title>
<path fill="none" stroke="#000000" d="M276.1652,-122.1061C276.1652,-122.1061 276.1652,-140.991 276.1652,-140.991"/>
<polygon fill="#000000" stroke="#000000" points="272.6652,-140.9909 276.1652,-150.991 279.6652,-140.991 272.6652,-140.9909"/>
</g>
<!-- DummyService -->
<g id="node5" class="node">
<title>DummyService</title>
<ellipse fill="#fdb462" stroke="#000000" cx="96" cy="-104" rx="71.7892" ry="18"/>
<text text-anchor="middle" x="96" y="-99.8" font-family="Times,serif" font-size="14.00" fill="#000000">DummyService</text>
</g>
<!-- DummyService&#45;&gt;HomeModule -->
<g id="edge4" class="edge">
<title>DummyService&#45;&gt;HomeModule</title>
<path fill="none" stroke="#000000" d="M96,-122.1061C96,-141.3391 96,-169 96,-169 96,-169 251.9926,-169 251.9926,-169"/>
<polygon fill="#000000" stroke="#000000" points="251.9926,-172.5001 261.9926,-169 251.9925,-165.5001 251.9926,-172.5001"/>
</g>
</g>
</svg>
