<?xml version="1.0" encoding="UTF-8" standalone="no"?>
<!DOCTYPE svg PUBLIC "-//W3C//DTD SVG 1.1//EN"
 "http://www.w3.org/Graphics/SVG/1.1/DTD/svg11.dtd">
<!-- Generated by graphviz version 2.46.0 (20210119.1425)
 -->
<!-- Title: dependencies Pages: 1 -->
<svg width="645pt" height="211pt"
 viewBox="0.00 0.00 645.00 211.00" xmlns="http://www.w3.org/2000/svg" xmlns:xlink="http://www.w3.org/1999/xlink">
<g id="graph0" class="graph" transform="scale(1 1) rotate(0) translate(4 207)">
<title>dependencies</title>
<polygon fill="white" stroke="transparent" points="-4,4 -4,-207 641,-207 641,4 -4,4"/>
<text text-anchor="start" x="297.51" y="-42.4" font-family="sans-serif" font-weight="bold" font-size="14.00">Legend</text>
<polygon fill="#ffffb3" stroke="transparent" points="84.5,-10 84.5,-30 104.5,-30 104.5,-10 84.5,-10"/>
<text text-anchor="start" x="108.13" y="-15.4" font-family="sans-serif" font-size="14.00"> &#160;Declarations</text>
<polygon fill="#8dd3c7" stroke="transparent" points="197.5,-10 197.5,-30 217.5,-30 217.5,-10 197.5,-10"/>
<text text-anchor="start" x="221.23" y="-15.4" font-family="sans-serif" font-size="14.00"> &#160;Module</text>
<polygon fill="#80b1d3" stroke="transparent" points="283.5,-10 283.5,-30 303.5,-30 303.5,-10 283.5,-10"/>
<text text-anchor="start" x="307.28" y="-15.4" font-family="sans-serif" font-size="14.00"> &#160;Bootstrap</text>
<polygon fill="#fdb462" stroke="transparent" points="380.5,-10 380.5,-30 400.5,-30 400.5,-10 380.5,-10"/>
<text text-anchor="start" x="404.17" y="-15.4" font-family="sans-serif" font-size="14.00"> &#160;Providers</text>
<polygon fill="#fb8072" stroke="transparent" points="476.5,-10 476.5,-30 496.5,-30 496.5,-10 476.5,-10"/>
<text text-anchor="start" x="500.23" y="-15.4" font-family="sans-serif" font-size="14.00"> &#160;Exports</text>
<g id="clust1" class="cluster">
<title>cluster_HomeModule</title>
<polygon fill="none" stroke="black" stroke-dasharray="1,5" points="8,-70 8,-195 629,-195 629,-70 8,-70"/>
</g>
<g id="clust4" class="cluster">
<title>cluster_HomeModule_imports</title>
<polygon fill="none" stroke="black" points="350,-78 350,-130 621,-130 621,-78 350,-78"/>
</g>
<g id="clust2" class="cluster">
<title>cluster_HomeModule_declarations</title>
<polygon fill="none" stroke="black" points="184,-78 184,-130 342,-130 342,-78 184,-78"/>
</g>
<g id="clust7" class="cluster">
<title>cluster_HomeModule_providers</title>
<polygon fill="none" stroke="black" points="16,-78 16,-130 176,-130 176,-78 16,-78"/>
</g>
<!-- HomePageComponent -->
<g id="node1" class="node">
<title>HomePageComponent</title>
<polygon fill="#ffffb3" stroke="black" points="334.26,-122 191.74,-122 191.74,-86 334.26,-86 334.26,-122"/>
<text text-anchor="middle" x="263" y="-99.8" font-family="Times,serif" font-size="14.00">HomePageComponent</text>
</g>
<!-- HomeModule -->
<g id="node2" class="node">
<title>HomeModule</title>
<polygon fill="#8dd3c7" stroke="black" points="381.76,-187 378.76,-191 357.76,-191 354.76,-187 288.24,-187 288.24,-151 381.76,-151 381.76,-187"/>
<text text-anchor="middle" x="335" y="-164.8" font-family="Times,serif" font-size="14.00">HomeModule</text>
</g>
<!-- HomePageComponent&#45;&gt;HomeModule -->
<g id="edge1" class="edge">
<title>HomePageComponent&#45;&gt;HomeModule</title>
<path fill="none" stroke="black" d="M311.25,-122.11C311.25,-122.11 311.25,-140.99 311.25,-140.99"/>
<polygon fill="black" stroke="black" points="307.75,-140.99 311.25,-150.99 314.75,-140.99 307.75,-140.99"/>
</g>
<!-- HomeRoutingModule -->
<g id="node3" class="node">
<title>HomeRoutingModule</title>
<polygon fill="#8dd3c7" stroke="black" points="613.38,-122 610.38,-126 589.38,-126 586.38,-122 474.62,-122 474.62,-86 613.38,-86 613.38,-122"/>
<text text-anchor="middle" x="544" y="-99.8" font-family="Times,serif" font-size="14.00">HomeRoutingModule</text>
</g>
<!-- HomeRoutingModule&#45;&gt;HomeModule -->
<g id="edge2" class="edge">
<title>HomeRoutingModule&#45;&gt;HomeModule</title>
<path fill="none" stroke="black" d="M544,-122.11C544,-141.34 544,-169 544,-169 544,-169 391.9,-169 391.9,-169"/>
<polygon fill="black" stroke="black" points="391.9,-165.5 381.9,-169 391.9,-172.5 391.9,-165.5"/>
</g>
<!-- SharedModule -->
<g id="node4" class="node">
<title>SharedModule</title>
<polygon fill="#8dd3c7" stroke="black" points="456.42,-122 453.42,-126 432.42,-126 429.42,-122 357.58,-122 357.58,-86 456.42,-86 456.42,-122"/>
<text text-anchor="middle" x="407" y="-99.8" font-family="Times,serif" font-size="14.00">SharedModule</text>
</g>
<!-- SharedModule&#45;&gt;HomeModule -->
<g id="edge3" class="edge">
<title>SharedModule&#45;&gt;HomeModule</title>
<path fill="none" stroke="black" d="M369.83,-122.11C369.83,-122.11 369.83,-140.99 369.83,-140.99"/>
<polygon fill="black" stroke="black" points="366.33,-140.99 369.83,-150.99 373.33,-140.99 366.33,-140.99"/>
</g>
<!-- DummyService -->
<g id="node5" class="node">
<title>DummyService</title>
<ellipse fill="#fdb462" stroke="black" cx="96" cy="-104" rx="71.79" ry="18"/>
<text text-anchor="middle" x="96" y="-99.8" font-family="Times,serif" font-size="14.00">DummyService</text>
</g>
<!-- DummyService&#45;&gt;HomeModule -->
<g id="edge4" class="edge">
<title>DummyService&#45;&gt;HomeModule</title>
<path fill="none" stroke="black" d="M96,-122.11C96,-141.34 96,-169 96,-169 96,-169 278.07,-169 278.07,-169"/>
<polygon fill="black" stroke="black" points="278.07,-172.5 288.07,-169 278.07,-165.5 278.07,-172.5"/>
</g>
</g>
</svg>
