<?xml version="1.0" encoding="UTF-8" standalone="no"?>
<!DOCTYPE svg PUBLIC "-//W3C//DTD SVG 1.1//EN"
 "http://www.w3.org/Graphics/SVG/1.1/DTD/svg11.dtd">
<!-- Generated by graphviz version 2.46.0 (20210119.1425)
 -->
<!-- Title: dependencies Pages: 1 -->
<svg width="849pt" height="284pt"
 viewBox="0.00 0.00 849.00 284.00" xmlns="http://www.w3.org/2000/svg" xmlns:xlink="http://www.w3.org/1999/xlink">
<g id="graph0" class="graph" transform="scale(1 1) rotate(0) translate(4 280)">
<title>dependencies</title>
<polygon fill="white" stroke="transparent" points="-4,4 -4,-280 845,-280 845,4 -4,4"/>
<text text-anchor="start" x="399.51" y="-42.4" font-family="sans-serif" font-weight="bold" font-size="14.00">Legend</text>
<polygon fill="#ffffb3" stroke="transparent" points="186.5,-10 186.5,-30 206.5,-30 206.5,-10 186.5,-10"/>
<text text-anchor="start" x="210.13" y="-15.4" font-family="sans-serif" font-size="14.00"> &#160;Declarations</text>
<polygon fill="#8dd3c7" stroke="transparent" points="299.5,-10 299.5,-30 319.5,-30 319.5,-10 299.5,-10"/>
<text text-anchor="start" x="323.23" y="-15.4" font-family="sans-serif" font-size="14.00"> &#160;Module</text>
<polygon fill="#80b1d3" stroke="transparent" points="385.5,-10 385.5,-30 405.5,-30 405.5,-10 385.5,-10"/>
<text text-anchor="start" x="409.28" y="-15.4" font-family="sans-serif" font-size="14.00"> &#160;Bootstrap</text>
<polygon fill="#fdb462" stroke="transparent" points="482.5,-10 482.5,-30 502.5,-30 502.5,-10 482.5,-10"/>
<text text-anchor="start" x="506.17" y="-15.4" font-family="sans-serif" font-size="14.00"> &#160;Providers</text>
<polygon fill="#fb8072" stroke="transparent" points="578.5,-10 578.5,-30 598.5,-30 598.5,-10 578.5,-10"/>
<text text-anchor="start" x="602.23" y="-15.4" font-family="sans-serif" font-size="14.00"> &#160;Exports</text>
<g id="clust1" class="cluster">
<title>cluster_AppModule</title>
<polygon fill="none" stroke="black" stroke-dasharray="1,5" points="8,-70 8,-268 833,-268 833,-70 8,-70"/>
</g>
<g id="clust2" class="cluster">
<title>cluster_AppModule_declarations</title>
<polygon fill="none" stroke="black" points="703,-78 703,-130 825,-130 825,-78 703,-78"/>
</g>
<g id="clust6" class="cluster">
<title>cluster_AppModule_bootstrap</title>
<polygon fill="none" stroke="black" points="434,-208 434,-260 558,-260 558,-208 434,-208"/>
</g>
<g id="clust4" class="cluster">
<title>cluster_AppModule_imports</title>
<polygon fill="none" stroke="black" points="443,-78 443,-130 695,-130 695,-78 443,-78"/>
</g>
<g id="clust7" class="cluster">
<title>cluster_AppModule_providers</title>
<polygon fill="none" stroke="black" points="16,-78 16,-130 435,-130 435,-78 16,-78"/>
</g>
<!-- AppComponent -->
<g id="node1" class="node">
<title>AppComponent</title>
<polygon fill="#ffffb3" stroke="black" points="816.94,-122 711.06,-122 711.06,-86 816.94,-86 816.94,-122"/>
<text text-anchor="middle" x="764" y="-99.8" font-family="Times,serif" font-size="14.00">AppComponent</text>
</g>
<!-- AppModule -->
<g id="node2" class="node">
<title>AppModule</title>
<polygon fill="#8dd3c7" stroke="black" points="537.66,-187 534.66,-191 513.66,-191 510.66,-187 454.34,-187 454.34,-151 537.66,-151 537.66,-187"/>
<text text-anchor="middle" x="496" y="-164.8" font-family="Times,serif" font-size="14.00">AppModule</text>
</g>
<!-- AppComponent&#45;&gt;AppModule -->
<g id="edge1" class="edge">
<title>AppComponent&#45;&gt;AppModule</title>
<path fill="none" stroke="black" d="M764,-122.28C764,-143.32 764,-175 764,-175 764,-175 547.88,-175 547.88,-175"/>
<polygon fill="black" stroke="black" points="547.88,-171.5 537.88,-175 547.87,-178.5 547.88,-171.5"/>
</g>
<!-- AppComponent  -->
<g id="node5" class="node">
<title>AppComponent </title>
<polygon fill="#80b1d3" stroke="black" points="550.44,-252 441.56,-252 441.56,-216 550.44,-216 550.44,-252"/>
<text text-anchor="middle" x="496" y="-229.8" font-family="Times,serif" font-size="14.00">AppComponent </text>
</g>
<!-- AppModule&#45;&gt;AppComponent  -->
<g id="edge4" class="edge">
<title>AppModule&#45;&gt;AppComponent </title>
<path fill="none" stroke="black" stroke-dasharray="1,5" d="M496,-187.11C496,-187.11 496,-205.99 496,-205.99"/>
<polygon fill="black" stroke="black" points="492.5,-205.99 496,-215.99 499.5,-205.99 492.5,-205.99"/>
</g>
<!-- AppRoutingModule -->
<g id="node3" class="node">
<title>AppRoutingModule</title>
<polygon fill="#8dd3c7" stroke="black" points="687.27,-122 684.27,-126 663.27,-126 660.27,-122 558.73,-122 558.73,-86 687.27,-86 687.27,-122"/>
<text text-anchor="middle" x="623" y="-99.8" font-family="Times,serif" font-size="14.00">AppRoutingModule</text>
</g>
<!-- AppRoutingModule&#45;&gt;AppModule -->
<g id="edge2" class="edge">
<title>AppRoutingModule&#45;&gt;AppModule</title>
<path fill="none" stroke="black" d="M623,-122.02C623,-139.37 623,-163 623,-163 623,-163 547.94,-163 547.94,-163"/>
<polygon fill="black" stroke="black" points="547.94,-159.5 537.94,-163 547.94,-166.5 547.94,-159.5"/>
</g>
<!-- ErrorModule -->
<g id="node4" class="node">
<title>ErrorModule</title>
<polygon fill="#8dd3c7" stroke="black" points="540.58,-122 537.58,-126 516.58,-126 513.58,-122 451.42,-122 451.42,-86 540.58,-86 540.58,-122"/>
<text text-anchor="middle" x="496" y="-99.8" font-family="Times,serif" font-size="14.00">ErrorModule</text>
</g>
<!-- ErrorModule&#45;&gt;AppModule -->
<g id="edge3" class="edge">
<title>ErrorModule&#45;&gt;AppModule</title>
<path fill="none" stroke="black" d="M496,-122.11C496,-122.11 496,-140.99 496,-140.99"/>
<polygon fill="black" stroke="black" points="492.5,-140.99 496,-150.99 499.5,-140.99 492.5,-140.99"/>
</g>
<!-- AppHttpInterceptor -->
<g id="node6" class="node">
<title>AppHttpInterceptor</title>
<ellipse fill="#fdb462" stroke="black" cx="340" cy="-104" rx="87.38" ry="18"/>
<text text-anchor="middle" x="340" y="-99.8" font-family="Times,serif" font-size="14.00">AppHttpInterceptor</text>
</g>
<!-- AppHttpInterceptor&#45;&gt;AppModule -->
<g id="edge5" class="edge">
<title>AppHttpInterceptor&#45;&gt;AppModule</title>
<path fill="none" stroke="black" d="M340,-122.02C340,-139.37 340,-163 340,-163 340,-163 444.19,-163 444.19,-163"/>
<polygon fill="black" stroke="black" points="444.19,-166.5 454.19,-163 444.19,-159.5 444.19,-166.5"/>
</g>
<!-- PushNotificationService -->
<g id="node7" class="node">
<title>PushNotificationService</title>
<ellipse fill="#fdb462" stroke="black" cx="129" cy="-104" rx="105.37" ry="18"/>
<text text-anchor="middle" x="129" y="-99.8" font-family="Times,serif" font-size="14.00">PushNotificationService</text>
</g>
<!-- PushNotificationService&#45;&gt;AppModule -->
<g id="edge6" class="edge">
<title>PushNotificationService&#45;&gt;AppModule</title>
<path fill="none" stroke="black" d="M129,-122.28C129,-143.32 129,-175 129,-175 129,-175 444.26,-175 444.26,-175"/>
<polygon fill="black" stroke="black" points="444.26,-178.5 454.26,-175 444.26,-171.5 444.26,-178.5"/>
</g>
</g>
</svg>
