<?xml version="1.0" encoding="UTF-8" standalone="no"?>
<!DOCTYPE svg PUBLIC "-//W3C//DTD SVG 1.1//EN"
 "http://www.w3.org/Graphics/SVG/1.1/DTD/svg11.dtd">
<!-- Generated by graphviz version 2.40.1 (20161225.0304)
 -->
<!-- Title: dependencies Pages: 1 -->
<svg width="849pt" height="284pt"
 viewBox="0.00 0.00 849.00 284.00" xmlns="http://www.w3.org/2000/svg" xmlns:xlink="http://www.w3.org/1999/xlink">
<g id="graph0" class="graph" transform="scale(1 1) rotate(0) translate(4 280)">
<title>dependencies</title>
<polygon fill="#ffffff" stroke="transparent" points="-4,4 -4,-280 845,-280 845,4 -4,4"/>
<text text-anchor="start" x="399.5091" y="-42.4" font-family="sans-serif" font-weight="bold" font-size="14.00" fill="#000000">Legend</text>
<polygon fill="#ffffb3" stroke="transparent" points="186.5,-10 186.5,-30 206.5,-30 206.5,-10 186.5,-10"/>
<text text-anchor="start" x="210.129" y="-15.4" font-family="sans-serif" font-size="14.00" fill="#000000"> &#160;Declarations</text>
<polygon fill="#8dd3c7" stroke="transparent" points="299.5,-10 299.5,-30 319.5,-30 319.5,-10 299.5,-10"/>
<text text-anchor="start" x="323.2251" y="-15.4" font-family="sans-serif" font-size="14.00" fill="#000000"> &#160;Module</text>
<polygon fill="#80b1d3" stroke="transparent" points="385.5,-10 385.5,-30 405.5,-30 405.5,-10 385.5,-10"/>
<text text-anchor="start" x="409.2812" y="-15.4" font-family="sans-serif" font-size="14.00" fill="#000000"> &#160;Bootstrap</text>
<polygon fill="#fdb462" stroke="transparent" points="482.5,-10 482.5,-30 502.5,-30 502.5,-10 482.5,-10"/>
<text text-anchor="start" x="506.1732" y="-15.4" font-family="sans-serif" font-size="14.00" fill="#000000"> &#160;Providers</text>
<polygon fill="#fb8072" stroke="transparent" points="578.5,-10 578.5,-30 598.5,-30 598.5,-10 578.5,-10"/>
<text text-anchor="start" x="602.2258" y="-15.4" font-family="sans-serif" font-size="14.00" fill="#000000"> &#160;Exports</text>
<g id="clust1" class="cluster">
<title>cluster_AppModule</title>
<polygon fill="none" stroke="#000000" stroke-dasharray="1,5" points="8,-70 8,-268 833,-268 833,-70 8,-70"/>
</g>
<g id="clust2" class="cluster">
<title>cluster_AppModule_declarations</title>
<polygon fill="none" stroke="#000000" points="703,-78 703,-130 825,-130 825,-78 703,-78"/>
</g>
<g id="clust4" class="cluster">
<title>cluster_AppModule_imports</title>
<polygon fill="none" stroke="#000000" points="443,-78 443,-130 695,-130 695,-78 443,-78"/>
</g>
<g id="clust6" class="cluster">
<title>cluster_AppModule_bootstrap</title>
<polygon fill="none" stroke="#000000" points="434,-208 434,-260 558,-260 558,-208 434,-208"/>
</g>
<g id="clust7" class="cluster">
<title>cluster_AppModule_providers</title>
<polygon fill="none" stroke="#000000" points="16,-78 16,-130 435,-130 435,-78 16,-78"/>
</g>
<!-- AppComponent -->
<g id="node1" class="node">
<title>AppComponent</title>
<polygon fill="#ffffb3" stroke="#000000" points="816.9399,-122 711.0601,-122 711.0601,-86 816.9399,-86 816.9399,-122"/>
<text text-anchor="middle" x="764" y="-99.8" font-family="Times,serif" font-size="14.00" fill="#000000">AppComponent</text>
</g>
<!-- AppModule -->
<g id="node2" class="node">
<title>AppModule</title>
<polygon fill="#8dd3c7" stroke="#000000" points="537.6571,-187 534.6571,-191 513.6571,-191 510.6571,-187 454.3429,-187 454.3429,-151 537.6571,-151 537.6571,-187"/>
<text text-anchor="middle" x="496" y="-164.8" font-family="Times,serif" font-size="14.00" fill="#000000">AppModule</text>
</g>
<!-- AppComponent&#45;&gt;AppModule -->
<g id="edge1" class="edge">
<title>AppComponent&#45;&gt;AppModule</title>
<path fill="none" stroke="#000000" d="M764,-122.2843C764,-143.3211 764,-175 764,-175 764,-175 547.875,-175 547.875,-175"/>
<polygon fill="#000000" stroke="#000000" points="547.875,-171.5001 537.875,-175 547.875,-178.5001 547.875,-171.5001"/>
</g>
<!-- AppComponent  -->
<g id="node5" class="node">
<title>AppComponent </title>
<polygon fill="#80b1d3" stroke="#000000" points="550.439,-252 441.561,-252 441.561,-216 550.439,-216 550.439,-252"/>
<text text-anchor="middle" x="496" y="-229.8" font-family="Times,serif" font-size="14.00" fill="#000000">AppComponent </text>
</g>
<!-- AppModule&#45;&gt;AppComponent  -->
<g id="edge4" class="edge">
<title>AppModule&#45;&gt;AppComponent </title>
<path fill="none" stroke="#000000" stroke-dasharray="1,5" d="M496,-187.1061C496,-187.1061 496,-205.991 496,-205.991"/>
<polygon fill="#000000" stroke="#000000" points="492.5001,-205.9909 496,-215.991 499.5001,-205.991 492.5001,-205.9909"/>
</g>
<!-- AppRoutingModule -->
<g id="node3" class="node">
<title>AppRoutingModule</title>
<polygon fill="#8dd3c7" stroke="#000000" points="687.2744,-122 684.2744,-126 663.2744,-126 660.2744,-122 558.7256,-122 558.7256,-86 687.2744,-86 687.2744,-122"/>
<text text-anchor="middle" x="623" y="-99.8" font-family="Times,serif" font-size="14.00" fill="#000000">AppRoutingModule</text>
</g>
<!-- AppRoutingModule&#45;&gt;AppModule -->
<g id="edge2" class="edge">
<title>AppRoutingModule&#45;&gt;AppModule</title>
<path fill="none" stroke="#000000" d="M623,-122.0225C623,-139.3734 623,-163 623,-163 623,-163 547.9365,-163 547.9365,-163"/>
<polygon fill="#000000" stroke="#000000" points="547.9366,-159.5001 537.9365,-163 547.9365,-166.5001 547.9366,-159.5001"/>
</g>
<!-- ErrorModule -->
<g id="node4" class="node">
<title>ErrorModule</title>
<polygon fill="#8dd3c7" stroke="#000000" points="540.5842,-122 537.5842,-126 516.5842,-126 513.5842,-122 451.4158,-122 451.4158,-86 540.5842,-86 540.5842,-122"/>
<text text-anchor="middle" x="496" y="-99.8" font-family="Times,serif" font-size="14.00" fill="#000000">ErrorModule</text>
</g>
<!-- ErrorModule&#45;&gt;AppModule -->
<g id="edge3" class="edge">
<title>ErrorModule&#45;&gt;AppModule</title>
<path fill="none" stroke="#000000" d="M496,-122.1061C496,-122.1061 496,-140.991 496,-140.991"/>
<polygon fill="#000000" stroke="#000000" points="492.5001,-140.9909 496,-150.991 499.5001,-140.991 492.5001,-140.9909"/>
</g>
<!-- AppHttpInterceptor -->
<g id="node6" class="node">
<title>AppHttpInterceptor</title>
<ellipse fill="#fdb462" stroke="#000000" cx="340" cy="-104" rx="87.3789" ry="18"/>
<text text-anchor="middle" x="340" y="-99.8" font-family="Times,serif" font-size="14.00" fill="#000000">AppHttpInterceptor</text>
</g>
<!-- AppHttpInterceptor&#45;&gt;AppModule -->
<g id="edge5" class="edge">
<title>AppHttpInterceptor&#45;&gt;AppModule</title>
<path fill="none" stroke="#000000" d="M340,-122.0225C340,-139.3734 340,-163 340,-163 340,-163 444.1949,-163 444.1949,-163"/>
<polygon fill="#000000" stroke="#000000" points="444.1949,-166.5001 454.1949,-163 444.1948,-159.5001 444.1949,-166.5001"/>
</g>
<!-- PushNotificationService -->
<g id="node7" class="node">
<title>PushNotificationService</title>
<ellipse fill="#fdb462" stroke="#000000" cx="129" cy="-104" rx="105.3721" ry="18"/>
<text text-anchor="middle" x="129" y="-99.8" font-family="Times,serif" font-size="14.00" fill="#000000">PushNotificationService</text>
</g>
<!-- PushNotificationService&#45;&gt;AppModule -->
<g id="edge6" class="edge">
<title>PushNotificationService&#45;&gt;AppModule</title>
<path fill="none" stroke="#000000" d="M129,-122.2843C129,-143.3211 129,-175 129,-175 129,-175 444.2577,-175 444.2577,-175"/>
<polygon fill="#000000" stroke="#000000" points="444.2578,-178.5001 454.2577,-175 444.2577,-171.5001 444.2578,-178.5001"/>
</g>
</g>
</svg>
