<?xml version="1.0" encoding="UTF-8" standalone="no"?>
<!DOCTYPE svg PUBLIC "-//W3C//DTD SVG 1.1//EN"
 "http://www.w3.org/Graphics/SVG/1.1/DTD/svg11.dtd">
<!-- Generated by graphviz version 2.40.1 (20161225.0304)
 -->
<!-- Title: dependencies Pages: 1 -->
<svg width="1078pt" height="360pt"
 viewBox="0.00 0.00 1078.00 360.00" xmlns="http://www.w3.org/2000/svg" xmlns:xlink="http://www.w3.org/1999/xlink">
<g id="graph0" class="graph" transform="scale(1 1) rotate(0) translate(4 356)">
<title>dependencies</title>
<polygon fill="#ffffff" stroke="transparent" points="-4,4 -4,-356 1074,-356 1074,4 -4,4"/>
<text text-anchor="start" x="514.0091" y="-42.4" font-family="sans-serif" font-weight="bold" font-size="14.00" fill="#000000">Legend</text>
<polygon fill="#ffffb3" stroke="transparent" points="301,-10 301,-30 321,-30 321,-10 301,-10"/>
<text text-anchor="start" x="324.629" y="-15.4" font-family="sans-serif" font-size="14.00" fill="#000000"> &#160;Declarations</text>
<polygon fill="#8dd3c7" stroke="transparent" points="414,-10 414,-30 434,-30 434,-10 414,-10"/>
<text text-anchor="start" x="437.7251" y="-15.4" font-family="sans-serif" font-size="14.00" fill="#000000"> &#160;Module</text>
<polygon fill="#80b1d3" stroke="transparent" points="500,-10 500,-30 520,-30 520,-10 500,-10"/>
<text text-anchor="start" x="523.7812" y="-15.4" font-family="sans-serif" font-size="14.00" fill="#000000"> &#160;Bootstrap</text>
<polygon fill="#fdb462" stroke="transparent" points="597,-10 597,-30 617,-30 617,-10 597,-10"/>
<text text-anchor="start" x="620.6732" y="-15.4" font-family="sans-serif" font-size="14.00" fill="#000000"> &#160;Providers</text>
<polygon fill="#fb8072" stroke="transparent" points="693,-10 693,-30 713,-30 713,-10 693,-10"/>
<text text-anchor="start" x="716.7258" y="-15.4" font-family="sans-serif" font-size="14.00" fill="#000000"> &#160;Exports</text>
<g id="clust1" class="cluster">
<title>cluster_AppModule</title>
<polygon fill="none" stroke="#000000" stroke-dasharray="1,5" points="152,-146 152,-344 550,-344 550,-146 152,-146"/>
</g>
<g id="clust2" class="cluster">
<title>cluster_AppModule_declarations</title>
<polygon fill="none" stroke="#000000" points="420,-154 420,-206 542,-206 542,-154 420,-154"/>
</g>
<g id="clust4" class="cluster">
<title>cluster_AppModule_imports</title>
<polygon fill="none" stroke="#000000" points="160,-154 160,-206 412,-206 412,-154 160,-154"/>
</g>
<g id="clust6" class="cluster">
<title>cluster_AppModule_bootstrap</title>
<polygon fill="none" stroke="#000000" points="160,-284 160,-336 284,-336 284,-284 160,-284"/>
</g>
<g id="clust14" class="cluster">
<title>cluster_AppServerModule</title>
<polygon fill="none" stroke="#000000" stroke-dasharray="1,5" points="8,-219 8,-271 144,-271 144,-219 8,-219"/>
</g>
<g id="clust20" class="cluster">
<title>cluster_ErrorModule</title>
<polygon fill="none" stroke="#000000" stroke-dasharray="1,5" points="128,-70 128,-138 420,-138 420,-70 128,-70"/>
</g>
<g id="clust21" class="cluster">
<title>cluster_ErrorModule_declarations</title>
<polygon fill="none" stroke="#000000" points="136,-78 136,-130 290,-130 290,-78 136,-78"/>
</g>
<g id="clust23" class="cluster">
<title>cluster_ErrorModule_imports</title>
<polygon fill="none" stroke="#000000" points="298,-78 298,-130 412,-130 412,-78 298,-78"/>
</g>
<g id="clust27" class="cluster">
<title>cluster_HomeModule</title>
<polygon fill="none" stroke="#000000" stroke-dasharray="1,5" points="558,-70 558,-206 1062,-206 1062,-70 558,-70"/>
</g>
<g id="clust28" class="cluster">
<title>cluster_HomeModule_declarations</title>
<polygon fill="none" stroke="#000000" points="896,-78 896,-130 1054,-130 1054,-78 896,-78"/>
</g>
<g id="clust30" class="cluster">
<title>cluster_HomeModule_imports</title>
<polygon fill="none" stroke="#000000" points="734,-78 734,-130 888,-130 888,-78 734,-78"/>
</g>
<g id="clust33" class="cluster">
<title>cluster_HomeModule_providers</title>
<polygon fill="none" stroke="#000000" points="566,-78 566,-130 726,-130 726,-78 566,-78"/>
</g>
<!-- AppComponent -->
<g id="node1" class="node">
<title>AppComponent</title>
<polygon fill="#ffffb3" stroke="#000000" points="533.9399,-198 428.0601,-198 428.0601,-162 533.9399,-162 533.9399,-198"/>
<text text-anchor="middle" x="481" y="-175.8" font-family="Times,serif" font-size="14.00" fill="#000000">AppComponent</text>
</g>
<!-- AppModule -->
<g id="node2" class="node">
<title>AppModule</title>
<polygon fill="#8dd3c7" stroke="#000000" points="263.6571,-263 260.6571,-267 239.6571,-267 236.6571,-263 180.3429,-263 180.3429,-227 263.6571,-227 263.6571,-263"/>
<text text-anchor="middle" x="222" y="-240.8" font-family="Times,serif" font-size="14.00" fill="#000000">AppModule</text>
</g>
<!-- AppComponent&#45;&gt;AppModule -->
<g id="edge1" class="edge">
<title>AppComponent&#45;&gt;AppModule</title>
<path fill="none" stroke="#000000" d="M481,-198.2843C481,-219.3211 481,-251 481,-251 481,-251 273.9007,-251 273.9007,-251"/>
<polygon fill="#000000" stroke="#000000" points="273.9007,-247.5001 263.9007,-251 273.9006,-254.5001 273.9007,-247.5001"/>
</g>
<!-- AppComponent  -->
<g id="node5" class="node">
<title>AppComponent </title>
<polygon fill="#80b1d3" stroke="#000000" points="276.439,-328 167.561,-328 167.561,-292 276.439,-292 276.439,-328"/>
<text text-anchor="middle" x="222" y="-305.8" font-family="Times,serif" font-size="14.00" fill="#000000">AppComponent </text>
</g>
<!-- AppModule&#45;&gt;AppComponent  -->
<g id="edge4" class="edge">
<title>AppModule&#45;&gt;AppComponent </title>
<path fill="none" stroke="#000000" stroke-dasharray="1,5" d="M222,-263.1061C222,-263.1061 222,-281.991 222,-281.991"/>
<polygon fill="#000000" stroke="#000000" points="218.5001,-281.9909 222,-291.991 225.5001,-281.991 218.5001,-281.9909"/>
</g>
<!-- AppServerModule -->
<g id="node6" class="node">
<title>AppServerModule</title>
<polygon fill="#8dd3c7" stroke="#000000" points="136.1895,-263 133.1895,-267 112.1895,-267 109.1895,-263 15.8105,-263 15.8105,-227 136.1895,-227 136.1895,-263"/>
<text text-anchor="middle" x="76" y="-240.8" font-family="Times,serif" font-size="14.00" fill="#000000">AppServerModule</text>
</g>
<!-- AppModule&#45;&gt;AppServerModule -->
<g id="edge5" class="edge">
<title>AppModule&#45;&gt;AppServerModule</title>
<path fill="none" stroke="#000000" d="M180.1623,-239C180.1623,-239 146.3404,-239 146.3404,-239"/>
<polygon fill="#000000" stroke="#000000" points="146.3405,-235.5001 136.3404,-239 146.3404,-242.5001 146.3405,-235.5001"/>
</g>
<!-- AppRoutingModule -->
<g id="node3" class="node">
<title>AppRoutingModule</title>
<polygon fill="#8dd3c7" stroke="#000000" points="404.2744,-198 401.2744,-202 380.2744,-202 377.2744,-198 275.7256,-198 275.7256,-162 404.2744,-162 404.2744,-198"/>
<text text-anchor="middle" x="340" y="-175.8" font-family="Times,serif" font-size="14.00" fill="#000000">AppRoutingModule</text>
</g>
<!-- AppRoutingModule&#45;&gt;AppModule -->
<g id="edge2" class="edge">
<title>AppRoutingModule&#45;&gt;AppModule</title>
<path fill="none" stroke="#000000" d="M340.4283,-198.0225C340.4283,-215.3734 340.4283,-239 340.4283,-239 340.4283,-239 273.7534,-239 273.7534,-239"/>
<polygon fill="#000000" stroke="#000000" points="273.7534,-235.5001 263.7534,-239 273.7534,-242.5001 273.7534,-235.5001"/>
</g>
<!-- ErrorModule -->
<g id="node4" class="node">
<title>ErrorModule</title>
<polygon fill="#8dd3c7" stroke="#000000" points="257.5842,-198 254.5842,-202 233.5842,-202 230.5842,-198 168.4158,-198 168.4158,-162 257.5842,-162 257.5842,-198"/>
<text text-anchor="middle" x="213" y="-175.8" font-family="Times,serif" font-size="14.00" fill="#000000">ErrorModule</text>
</g>
<!-- ErrorModule&#45;&gt;AppModule -->
<g id="edge3" class="edge">
<title>ErrorModule&#45;&gt;AppModule</title>
<path fill="none" stroke="#000000" d="M218.857,-198.1061C218.857,-198.1061 218.857,-216.991 218.857,-216.991"/>
<polygon fill="#000000" stroke="#000000" points="215.357,-216.9909 218.857,-226.991 222.357,-216.991 215.357,-216.9909"/>
</g>
<!-- AppServerModule&#45;&gt;AppComponent  -->
<g id="edge6" class="edge">
<title>AppServerModule&#45;&gt;AppComponent </title>
<path fill="none" stroke="#000000" stroke-dasharray="1,5" d="M136.3038,-251C156.6545,-251 174.3149,-251 174.3149,-251 174.3149,-251 174.3149,-281.9775 174.3149,-281.9775"/>
<polygon fill="#000000" stroke="#000000" points="170.8149,-281.9774 174.3149,-291.9775 177.8149,-281.9775 170.8149,-281.9774"/>
</g>
<!-- ErrorPageComponent -->
<g id="node7" class="node">
<title>ErrorPageComponent</title>
<polygon fill="#ffffb3" stroke="#000000" points="282.0786,-122 143.9214,-122 143.9214,-86 282.0786,-86 282.0786,-122"/>
<text text-anchor="middle" x="213" y="-99.8" font-family="Times,serif" font-size="14.00" fill="#000000">ErrorPageComponent</text>
</g>
<!-- ErrorPageComponent&#45;&gt;ErrorModule -->
<g id="edge7" class="edge">
<title>ErrorPageComponent&#45;&gt;ErrorModule</title>
<path fill="none" stroke="#000000" d="M198.1526,-122.0109C198.1526,-122.0109 198.1526,-151.855 198.1526,-151.855"/>
<polygon fill="#000000" stroke="#000000" points="194.6527,-151.8549 198.1526,-161.855 201.6527,-151.855 194.6527,-151.8549"/>
</g>
<!-- SharedModule -->
<g id="node8" class="node">
<title>SharedModule</title>
<polygon fill="#8dd3c7" stroke="#000000" points="404.4231,-122 401.4231,-126 380.4231,-126 377.4231,-122 305.5769,-122 305.5769,-86 404.4231,-86 404.4231,-122"/>
<text text-anchor="middle" x="355" y="-99.8" font-family="Times,serif" font-size="14.00" fill="#000000">SharedModule</text>
</g>
<!-- SharedModule&#45;&gt;ErrorModule -->
<g id="edge8" class="edge">
<title>SharedModule&#45;&gt;ErrorModule</title>
<path fill="none" stroke="#000000" d="M355,-122.1097C355,-131.897 355,-142 355,-142 355,-142 227.8474,-142 227.8474,-142 227.8474,-142 227.8474,-151.8903 227.8474,-151.8903"/>
<polygon fill="#000000" stroke="#000000" points="224.3475,-151.8903 227.8474,-161.8903 231.3475,-151.8904 224.3475,-151.8903"/>
</g>
<!-- HomeModule -->
<g id="node10" class="node">
<title>HomeModule</title>
<polygon fill="#8dd3c7" stroke="#000000" points="774.7619,-198 771.7619,-202 750.7619,-202 747.7619,-198 681.2381,-198 681.2381,-162 774.7619,-162 774.7619,-198"/>
<text text-anchor="middle" x="728" y="-175.8" font-family="Times,serif" font-size="14.00" fill="#000000">HomeModule</text>
</g>
<!-- SharedModule&#45;&gt;HomeModule -->
<g id="edge11" class="edge">
<title>SharedModule&#45;&gt;HomeModule</title>
<path fill="none" stroke="#000000" d="M404.456,-104C463.4035,-104 554.0375,-104 554.0375,-104 554.0375,-104 554.0375,-180 554.0375,-180 554.0375,-180 670.9232,-180 670.9232,-180"/>
<polygon fill="#000000" stroke="#000000" points="670.9233,-183.5001 680.9232,-180 670.9232,-176.5001 670.9233,-183.5001"/>
</g>
<!-- HomePageComponent -->
<g id="node9" class="node">
<title>HomePageComponent</title>
<polygon fill="#ffffb3" stroke="#000000" points="1046.2562,-122 903.7438,-122 903.7438,-86 1046.2562,-86 1046.2562,-122"/>
<text text-anchor="middle" x="975" y="-99.8" font-family="Times,serif" font-size="14.00" fill="#000000">HomePageComponent</text>
</g>
<!-- HomePageComponent&#45;&gt;HomeModule -->
<g id="edge9" class="edge">
<title>HomePageComponent&#45;&gt;HomeModule</title>
<path fill="none" stroke="#000000" d="M975,-122.0109C975,-144.4852 975,-180 975,-180 975,-180 785.0402,-180 785.0402,-180"/>
<polygon fill="#000000" stroke="#000000" points="785.0402,-176.5001 775.0402,-180 785.0402,-183.5001 785.0402,-176.5001"/>
</g>
<!-- HomeRoutingModule -->
<g id="node11" class="node">
<title>HomeRoutingModule</title>
<polygon fill="#8dd3c7" stroke="#000000" points="880.3795,-122 877.3795,-126 856.3795,-126 853.3795,-122 741.6205,-122 741.6205,-86 880.3795,-86 880.3795,-122"/>
<text text-anchor="middle" x="811" y="-99.8" font-family="Times,serif" font-size="14.00" fill="#000000">HomeRoutingModule</text>
</g>
<!-- HomeRoutingModule&#45;&gt;HomeModule -->
<g id="edge10" class="edge">
<title>HomeRoutingModule&#45;&gt;HomeModule</title>
<path fill="none" stroke="#000000" d="M758.2206,-122.0109C758.2206,-122.0109 758.2206,-151.855 758.2206,-151.855"/>
<polygon fill="#000000" stroke="#000000" points="754.7206,-151.8549 758.2206,-161.855 761.7206,-151.855 754.7206,-151.8549"/>
</g>
<!-- DummyService -->
<g id="node12" class="node">
<title>DummyService</title>
<ellipse fill="#fdb462" stroke="#000000" cx="646" cy="-104" rx="71.7892" ry="18"/>
<text text-anchor="middle" x="646" y="-99.8" font-family="Times,serif" font-size="14.00" fill="#000000">DummyService</text>
</g>
<!-- DummyService&#45;&gt;HomeModule -->
<g id="edge12" class="edge">
<title>DummyService&#45;&gt;HomeModule</title>
<path fill="none" stroke="#000000" d="M699.3818,-116.2107C699.3818,-116.2107 699.3818,-151.864 699.3818,-151.864"/>
<polygon fill="#000000" stroke="#000000" points="695.8819,-151.864 699.3818,-161.864 702.8819,-151.864 695.8819,-151.864"/>
</g>
</g>
</svg>
