<?xml version="1.0" encoding="UTF-8" standalone="no"?>
<!DOCTYPE svg PUBLIC "-//W3C//DTD SVG 1.1//EN"
 "http://www.w3.org/Graphics/SVG/1.1/DTD/svg11.dtd">
<!-- Generated by graphviz version 2.40.1 (20161225.0304)
 -->
<!-- Title: dependencies Pages: 1 -->
<svg width="1354pt" height="360pt"
 viewBox="0.00 0.00 1354.00 360.00" xmlns="http://www.w3.org/2000/svg" xmlns:xlink="http://www.w3.org/1999/xlink">
<g id="graph0" class="graph" transform="scale(1 1) rotate(0) translate(4 356)">
<title>dependencies</title>
<polygon fill="#ffffff" stroke="transparent" points="-4,4 -4,-356 1350,-356 1350,4 -4,4"/>
<text text-anchor="start" x="652.0091" y="-42.4" font-family="sans-serif" font-weight="bold" font-size="14.00" fill="#000000">Legend</text>
<polygon fill="#ffffb3" stroke="transparent" points="439,-10 439,-30 459,-30 459,-10 439,-10"/>
<text text-anchor="start" x="462.629" y="-15.4" font-family="sans-serif" font-size="14.00" fill="#000000"> &#160;Declarations</text>
<polygon fill="#8dd3c7" stroke="transparent" points="552,-10 552,-30 572,-30 572,-10 552,-10"/>
<text text-anchor="start" x="575.7251" y="-15.4" font-family="sans-serif" font-size="14.00" fill="#000000"> &#160;Module</text>
<polygon fill="#80b1d3" stroke="transparent" points="638,-10 638,-30 658,-30 658,-10 638,-10"/>
<text text-anchor="start" x="661.7812" y="-15.4" font-family="sans-serif" font-size="14.00" fill="#000000"> &#160;Bootstrap</text>
<polygon fill="#fdb462" stroke="transparent" points="735,-10 735,-30 755,-30 755,-10 735,-10"/>
<text text-anchor="start" x="758.6732" y="-15.4" font-family="sans-serif" font-size="14.00" fill="#000000"> &#160;Providers</text>
<polygon fill="#fb8072" stroke="transparent" points="831,-10 831,-30 851,-30 851,-10 831,-10"/>
<text text-anchor="start" x="854.7258" y="-15.4" font-family="sans-serif" font-size="14.00" fill="#000000"> &#160;Exports</text>
<g id="clust1" class="cluster">
<title>cluster_AppModule</title>
<polygon fill="none" stroke="#000000" stroke-dasharray="1,5" points="230,-146 230,-344 826,-344 826,-146 230,-146"/>
</g>
<g id="clust2" class="cluster">
<title>cluster_AppModule_declarations</title>
<polygon fill="none" stroke="#000000" points="696,-154 696,-206 818,-206 818,-154 696,-154"/>
</g>
<g id="clust4" class="cluster">
<title>cluster_AppModule_imports</title>
<polygon fill="none" stroke="#000000" points="436,-154 436,-206 688,-206 688,-154 436,-154"/>
</g>
<g id="clust6" class="cluster">
<title>cluster_AppModule_bootstrap</title>
<polygon fill="none" stroke="#000000" points="294,-284 294,-336 418,-336 418,-284 294,-284"/>
</g>
<g id="clust7" class="cluster">
<title>cluster_AppModule_providers</title>
<polygon fill="none" stroke="#000000" points="238,-154 238,-206 428,-206 428,-154 238,-154"/>
</g>
<g id="clust14" class="cluster">
<title>cluster_AppServerModule</title>
<polygon fill="none" stroke="#000000" stroke-dasharray="1,5" points="8,-146 8,-271 222,-271 222,-146 8,-146"/>
</g>
<g id="clust19" class="cluster">
<title>cluster_AppServerModule_providers</title>
<polygon fill="none" stroke="#000000" points="16,-154 16,-206 214,-206 214,-154 16,-154"/>
</g>
<g id="clust20" class="cluster">
<title>cluster_ErrorModule</title>
<polygon fill="none" stroke="#000000" stroke-dasharray="1,5" points="404,-70 404,-138 696,-138 696,-70 404,-70"/>
</g>
<g id="clust21" class="cluster">
<title>cluster_ErrorModule_declarations</title>
<polygon fill="none" stroke="#000000" points="412,-78 412,-130 566,-130 566,-78 412,-78"/>
</g>
<g id="clust23" class="cluster">
<title>cluster_ErrorModule_imports</title>
<polygon fill="none" stroke="#000000" points="574,-78 574,-130 688,-130 688,-78 574,-78"/>
</g>
<g id="clust27" class="cluster">
<title>cluster_HomeModule</title>
<polygon fill="none" stroke="#000000" stroke-dasharray="1,5" points="834,-70 834,-206 1338,-206 1338,-70 834,-70"/>
</g>
<g id="clust28" class="cluster">
<title>cluster_HomeModule_declarations</title>
<polygon fill="none" stroke="#000000" points="1172,-78 1172,-130 1330,-130 1330,-78 1172,-78"/>
</g>
<g id="clust30" class="cluster">
<title>cluster_HomeModule_imports</title>
<polygon fill="none" stroke="#000000" points="1010,-78 1010,-130 1164,-130 1164,-78 1010,-78"/>
</g>
<g id="clust33" class="cluster">
<title>cluster_HomeModule_providers</title>
<polygon fill="none" stroke="#000000" points="842,-78 842,-130 1002,-130 1002,-78 842,-78"/>
</g>
<!-- AppComponent -->
<g id="node1" class="node">
<title>AppComponent</title>
<polygon fill="#ffffb3" stroke="#000000" points="809.9399,-198 704.0601,-198 704.0601,-162 809.9399,-162 809.9399,-198"/>
<text text-anchor="middle" x="757" y="-175.8" font-family="Times,serif" font-size="14.00" fill="#000000">AppComponent</text>
</g>
<!-- AppModule -->
<g id="node2" class="node">
<title>AppModule</title>
<polygon fill="#8dd3c7" stroke="#000000" points="452.6571,-263 449.6571,-267 428.6571,-267 425.6571,-263 369.3429,-263 369.3429,-227 452.6571,-227 452.6571,-263"/>
<text text-anchor="middle" x="411" y="-240.8" font-family="Times,serif" font-size="14.00" fill="#000000">AppModule</text>
</g>
<!-- AppComponent&#45;&gt;AppModule -->
<g id="edge1" class="edge">
<title>AppComponent&#45;&gt;AppModule</title>
<path fill="none" stroke="#000000" d="M757,-198.2843C757,-219.3211 757,-251 757,-251 757,-251 462.7357,-251 462.7357,-251"/>
<polygon fill="#000000" stroke="#000000" points="462.7357,-247.5001 452.7357,-251 462.7356,-254.5001 462.7357,-247.5001"/>
</g>
<!-- AppComponent  -->
<g id="node5" class="node">
<title>AppComponent </title>
<polygon fill="#80b1d3" stroke="#000000" points="410.439,-328 301.561,-328 301.561,-292 410.439,-292 410.439,-328"/>
<text text-anchor="middle" x="356" y="-305.8" font-family="Times,serif" font-size="14.00" fill="#000000">AppComponent </text>
</g>
<!-- AppModule&#45;&gt;AppComponent  -->
<g id="edge4" class="edge">
<title>AppModule&#45;&gt;AppComponent </title>
<path fill="none" stroke="#000000" stroke-dasharray="1,5" d="M389.8207,-263.1061C389.8207,-263.1061 389.8207,-281.991 389.8207,-281.991"/>
<polygon fill="#000000" stroke="#000000" points="386.3207,-281.9909 389.8207,-291.991 393.3207,-281.991 386.3207,-281.9909"/>
</g>
<!-- AppServerModule -->
<g id="node7" class="node">
<title>AppServerModule</title>
<polygon fill="#8dd3c7" stroke="#000000" points="214.1895,-263 211.1895,-267 190.1895,-267 187.1895,-263 93.8105,-263 93.8105,-227 214.1895,-227 214.1895,-263"/>
<text text-anchor="middle" x="154" y="-240.8" font-family="Times,serif" font-size="14.00" fill="#000000">AppServerModule</text>
</g>
<!-- AppModule&#45;&gt;AppServerModule -->
<g id="edge6" class="edge">
<title>AppModule&#45;&gt;AppServerModule</title>
<path fill="none" stroke="#000000" d="M369.1365,-239C369.1365,-239 224.566,-239 224.566,-239"/>
<polygon fill="#000000" stroke="#000000" points="224.566,-235.5001 214.566,-239 224.566,-242.5001 224.566,-235.5001"/>
</g>
<!-- AppRoutingModule -->
<g id="node3" class="node">
<title>AppRoutingModule</title>
<polygon fill="#8dd3c7" stroke="#000000" points="680.2744,-198 677.2744,-202 656.2744,-202 653.2744,-198 551.7256,-198 551.7256,-162 680.2744,-162 680.2744,-198"/>
<text text-anchor="middle" x="616" y="-175.8" font-family="Times,serif" font-size="14.00" fill="#000000">AppRoutingModule</text>
</g>
<!-- AppRoutingModule&#45;&gt;AppModule -->
<g id="edge2" class="edge">
<title>AppRoutingModule&#45;&gt;AppModule</title>
<path fill="none" stroke="#000000" d="M616,-198.0225C616,-215.3734 616,-239 616,-239 616,-239 462.9795,-239 462.9795,-239"/>
<polygon fill="#000000" stroke="#000000" points="462.9795,-235.5001 452.9795,-239 462.9795,-242.5001 462.9795,-235.5001"/>
</g>
<!-- ErrorModule -->
<g id="node4" class="node">
<title>ErrorModule</title>
<polygon fill="#8dd3c7" stroke="#000000" points="533.5842,-198 530.5842,-202 509.5842,-202 506.5842,-198 444.4158,-198 444.4158,-162 533.5842,-162 533.5842,-198"/>
<text text-anchor="middle" x="489" y="-175.8" font-family="Times,serif" font-size="14.00" fill="#000000">ErrorModule</text>
</g>
<!-- ErrorModule&#45;&gt;AppModule -->
<g id="edge3" class="edge">
<title>ErrorModule&#45;&gt;AppModule</title>
<path fill="none" stroke="#000000" d="M448.6431,-198.1061C448.6431,-198.1061 448.6431,-216.991 448.6431,-216.991"/>
<polygon fill="#000000" stroke="#000000" points="445.1431,-216.9909 448.6431,-226.991 452.1431,-216.991 445.1431,-216.9909"/>
</g>
<!-- AppHttpInterceptor -->
<g id="node6" class="node">
<title>AppHttpInterceptor</title>
<ellipse fill="#fdb462" stroke="#000000" cx="333" cy="-180" rx="87.3789" ry="18"/>
<text text-anchor="middle" x="333" y="-175.8" font-family="Times,serif" font-size="14.00" fill="#000000">AppHttpInterceptor</text>
</g>
<!-- AppHttpInterceptor&#45;&gt;AppModule -->
<g id="edge5" class="edge">
<title>AppHttpInterceptor&#45;&gt;AppModule</title>
<path fill="none" stroke="#000000" d="M394.6805,-192.8419C394.6805,-192.8419 394.6805,-216.5231 394.6805,-216.5231"/>
<polygon fill="#000000" stroke="#000000" points="391.1806,-216.523 394.6805,-226.5231 398.1806,-216.5231 391.1806,-216.523"/>
</g>
<!-- AppServerModule&#45;&gt;AppComponent  -->
<g id="edge7" class="edge">
<title>AppServerModule&#45;&gt;AppComponent </title>
<path fill="none" stroke="#000000" stroke-dasharray="1,5" d="M214.1354,-251C266.9251,-251 335.3512,-251 335.3512,-251 335.3512,-251 335.3512,-281.9775 335.3512,-281.9775"/>
<polygon fill="#000000" stroke="#000000" points="331.8512,-281.9774 335.3512,-291.9775 338.8512,-281.9775 331.8512,-281.9774"/>
</g>
<!-- UniversalInterceptor -->
<g id="node8" class="node">
<title>UniversalInterceptor</title>
<ellipse fill="#fdb462" stroke="#000000" cx="115" cy="-180" rx="90.8665" ry="18"/>
<text text-anchor="middle" x="115" y="-175.8" font-family="Times,serif" font-size="14.00" fill="#000000">UniversalInterceptor</text>
</g>
<!-- UniversalInterceptor&#45;&gt;AppServerModule -->
<g id="edge8" class="edge">
<title>UniversalInterceptor&#45;&gt;AppServerModule</title>
<path fill="none" stroke="#000000" d="M149.9193,-196.7391C149.9193,-196.7391 149.9193,-216.7182 149.9193,-216.7182"/>
<polygon fill="#000000" stroke="#000000" points="146.4194,-216.7182 149.9193,-226.7182 153.4194,-216.7182 146.4194,-216.7182"/>
</g>
<!-- ErrorPageComponent -->
<g id="node9" class="node">
<title>ErrorPageComponent</title>
<polygon fill="#ffffb3" stroke="#000000" points="558.0786,-122 419.9214,-122 419.9214,-86 558.0786,-86 558.0786,-122"/>
<text text-anchor="middle" x="489" y="-99.8" font-family="Times,serif" font-size="14.00" fill="#000000">ErrorPageComponent</text>
</g>
<!-- ErrorPageComponent&#45;&gt;ErrorModule -->
<g id="edge9" class="edge">
<title>ErrorPageComponent&#45;&gt;ErrorModule</title>
<path fill="none" stroke="#000000" d="M474.1526,-122.0109C474.1526,-122.0109 474.1526,-151.855 474.1526,-151.855"/>
<polygon fill="#000000" stroke="#000000" points="470.6527,-151.8549 474.1526,-161.855 477.6527,-151.855 470.6527,-151.8549"/>
</g>
<!-- SharedModule -->
<g id="node10" class="node">
<title>SharedModule</title>
<polygon fill="#8dd3c7" stroke="#000000" points="680.4231,-122 677.4231,-126 656.4231,-126 653.4231,-122 581.5769,-122 581.5769,-86 680.4231,-86 680.4231,-122"/>
<text text-anchor="middle" x="631" y="-99.8" font-family="Times,serif" font-size="14.00" fill="#000000">SharedModule</text>
</g>
<!-- SharedModule&#45;&gt;ErrorModule -->
<g id="edge10" class="edge">
<title>SharedModule&#45;&gt;ErrorModule</title>
<path fill="none" stroke="#000000" d="M631,-122.1097C631,-131.897 631,-142 631,-142 631,-142 503.8474,-142 503.8474,-142 503.8474,-142 503.8474,-151.8903 503.8474,-151.8903"/>
<polygon fill="#000000" stroke="#000000" points="500.3475,-151.8903 503.8474,-161.8903 507.3475,-151.8904 500.3475,-151.8903"/>
</g>
<!-- HomeModule -->
<g id="node12" class="node">
<title>HomeModule</title>
<polygon fill="#8dd3c7" stroke="#000000" points="1050.7619,-198 1047.7619,-202 1026.7619,-202 1023.7619,-198 957.2381,-198 957.2381,-162 1050.7619,-162 1050.7619,-198"/>
<text text-anchor="middle" x="1004" y="-175.8" font-family="Times,serif" font-size="14.00" fill="#000000">HomeModule</text>
</g>
<!-- SharedModule&#45;&gt;HomeModule -->
<g id="edge13" class="edge">
<title>SharedModule&#45;&gt;HomeModule</title>
<path fill="none" stroke="#000000" d="M680.456,-104C739.4035,-104 830.0375,-104 830.0375,-104 830.0375,-104 830.0375,-180 830.0375,-180 830.0375,-180 946.9232,-180 946.9232,-180"/>
<polygon fill="#000000" stroke="#000000" points="946.9233,-183.5001 956.9232,-180 946.9232,-176.5001 946.9233,-183.5001"/>
</g>
<!-- HomePageComponent -->
<g id="node11" class="node">
<title>HomePageComponent</title>
<polygon fill="#ffffb3" stroke="#000000" points="1322.2562,-122 1179.7438,-122 1179.7438,-86 1322.2562,-86 1322.2562,-122"/>
<text text-anchor="middle" x="1251" y="-99.8" font-family="Times,serif" font-size="14.00" fill="#000000">HomePageComponent</text>
</g>
<!-- HomePageComponent&#45;&gt;HomeModule -->
<g id="edge11" class="edge">
<title>HomePageComponent&#45;&gt;HomeModule</title>
<path fill="none" stroke="#000000" d="M1251,-122.0109C1251,-144.4852 1251,-180 1251,-180 1251,-180 1061.0402,-180 1061.0402,-180"/>
<polygon fill="#000000" stroke="#000000" points="1061.0402,-176.5001 1051.0402,-180 1061.0402,-183.5001 1061.0402,-176.5001"/>
</g>
<!-- HomeRoutingModule -->
<g id="node13" class="node">
<title>HomeRoutingModule</title>
<polygon fill="#8dd3c7" stroke="#000000" points="1156.3795,-122 1153.3795,-126 1132.3795,-126 1129.3795,-122 1017.6205,-122 1017.6205,-86 1156.3795,-86 1156.3795,-122"/>
<text text-anchor="middle" x="1087" y="-99.8" font-family="Times,serif" font-size="14.00" fill="#000000">HomeRoutingModule</text>
</g>
<!-- HomeRoutingModule&#45;&gt;HomeModule -->
<g id="edge12" class="edge">
<title>HomeRoutingModule&#45;&gt;HomeModule</title>
<path fill="none" stroke="#000000" d="M1034.2206,-122.0109C1034.2206,-122.0109 1034.2206,-151.855 1034.2206,-151.855"/>
<polygon fill="#000000" stroke="#000000" points="1030.7206,-151.8549 1034.2206,-161.855 1037.7206,-151.855 1030.7206,-151.8549"/>
</g>
<!-- DummyService -->
<g id="node14" class="node">
<title>DummyService</title>
<ellipse fill="#fdb462" stroke="#000000" cx="922" cy="-104" rx="71.7892" ry="18"/>
<text text-anchor="middle" x="922" y="-99.8" font-family="Times,serif" font-size="14.00" fill="#000000">DummyService</text>
</g>
<!-- DummyService&#45;&gt;HomeModule -->
<g id="edge14" class="edge">
<title>DummyService&#45;&gt;HomeModule</title>
<path fill="none" stroke="#000000" d="M975.3818,-116.2107C975.3818,-116.2107 975.3818,-151.864 975.3818,-151.864"/>
<polygon fill="#000000" stroke="#000000" points="971.8819,-151.864 975.3818,-161.864 978.8819,-151.864 971.8819,-151.864"/>
</g>
</g>
</svg>
