<?xml version="1.0" encoding="UTF-8" standalone="no"?>
<!DOCTYPE svg PUBLIC "-//W3C//DTD SVG 1.1//EN"
 "http://www.w3.org/Graphics/SVG/1.1/DTD/svg11.dtd">
<!-- Generated by graphviz version 2.46.0 (20210119.1425)
 -->
<!-- Title: dependencies Pages: 1 -->
<svg width="1577pt" height="360pt"
 viewBox="0.00 0.00 1577.00 360.00" xmlns="http://www.w3.org/2000/svg" xmlns:xlink="http://www.w3.org/1999/xlink">
<g id="graph0" class="graph" transform="scale(1 1) rotate(0) translate(4 356)">
<title>dependencies</title>
<polygon fill="white" stroke="transparent" points="-4,4 -4,-356 1573,-356 1573,4 -4,4"/>
<text text-anchor="start" x="763.51" y="-42.4" font-family="sans-serif" font-weight="bold" font-size="14.00">Legend</text>
<polygon fill="#ffffb3" stroke="transparent" points="550.5,-10 550.5,-30 570.5,-30 570.5,-10 550.5,-10"/>
<text text-anchor="start" x="574.13" y="-15.4" font-family="sans-serif" font-size="14.00"> &#160;Declarations</text>
<polygon fill="#8dd3c7" stroke="transparent" points="663.5,-10 663.5,-30 683.5,-30 683.5,-10 663.5,-10"/>
<text text-anchor="start" x="687.23" y="-15.4" font-family="sans-serif" font-size="14.00"> &#160;Module</text>
<polygon fill="#80b1d3" stroke="transparent" points="749.5,-10 749.5,-30 769.5,-30 769.5,-10 749.5,-10"/>
<text text-anchor="start" x="773.28" y="-15.4" font-family="sans-serif" font-size="14.00"> &#160;Bootstrap</text>
<polygon fill="#fdb462" stroke="transparent" points="846.5,-10 846.5,-30 866.5,-30 866.5,-10 846.5,-10"/>
<text text-anchor="start" x="870.17" y="-15.4" font-family="sans-serif" font-size="14.00"> &#160;Providers</text>
<polygon fill="#fb8072" stroke="transparent" points="942.5,-10 942.5,-30 962.5,-30 962.5,-10 942.5,-10"/>
<text text-anchor="start" x="966.23" y="-15.4" font-family="sans-serif" font-size="14.00"> &#160;Exports</text>
<g id="clust1" class="cluster">
<title>cluster_AppModule</title>
<polygon fill="none" stroke="black" stroke-dasharray="1,5" points="230,-146 230,-344 1055,-344 1055,-146 230,-146"/>
</g>
<g id="clust2" class="cluster">
<title>cluster_AppModule_declarations</title>
<polygon fill="none" stroke="black" points="925,-154 925,-206 1047,-206 1047,-154 925,-154"/>
</g>
<g id="clust4" class="cluster">
<title>cluster_AppModule_imports</title>
<polygon fill="none" stroke="black" points="665,-154 665,-206 917,-206 917,-154 665,-154"/>
</g>
<g id="clust6" class="cluster">
<title>cluster_AppModule_bootstrap</title>
<polygon fill="none" stroke="black" points="369,-284 369,-336 493,-336 493,-284 369,-284"/>
</g>
<g id="clust7" class="cluster">
<title>cluster_AppModule_providers</title>
<polygon fill="none" stroke="black" points="238,-154 238,-206 657,-206 657,-154 238,-154"/>
</g>
<g id="clust14" class="cluster">
<title>cluster_AppServerModule</title>
<polygon fill="none" stroke="black" stroke-dasharray="1,5" points="8,-146 8,-271 222,-271 222,-146 8,-146"/>
</g>
<g id="clust19" class="cluster">
<title>cluster_AppServerModule_providers</title>
<polygon fill="none" stroke="black" points="16,-154 16,-206 214,-206 214,-154 16,-154"/>
</g>
<g id="clust20" class="cluster">
<title>cluster_ErrorModule</title>
<polygon fill="none" stroke="black" stroke-dasharray="1,5" points="633,-70 633,-138 925,-138 925,-70 633,-70"/>
</g>
<g id="clust21" class="cluster">
<title>cluster_ErrorModule_declarations</title>
<polygon fill="none" stroke="black" points="641,-78 641,-130 795,-130 795,-78 641,-78"/>
</g>
<g id="clust23" class="cluster">
<title>cluster_ErrorModule_imports</title>
<polygon fill="none" stroke="black" points="803,-78 803,-130 917,-130 917,-78 803,-78"/>
</g>
<g id="clust27" class="cluster">
<title>cluster_HomeModule</title>
<polygon fill="none" stroke="black" stroke-dasharray="1,5" points="1063,-70 1063,-206 1561,-206 1561,-70 1063,-70"/>
</g>
<g id="clust28" class="cluster">
<title>cluster_HomeModule_declarations</title>
<polygon fill="none" stroke="black" points="1395,-78 1395,-130 1553,-130 1553,-78 1395,-78"/>
</g>
<g id="clust30" class="cluster">
<title>cluster_HomeModule_imports</title>
<polygon fill="none" stroke="black" points="1233,-78 1233,-130 1387,-130 1387,-78 1233,-78"/>
</g>
<g id="clust33" class="cluster">
<title>cluster_HomeModule_providers</title>
<polygon fill="none" stroke="black" points="1071,-78 1071,-130 1225,-130 1225,-78 1071,-78"/>
</g>
<!-- AppComponent -->
<g id="node1" class="node">
<title>AppComponent</title>
<polygon fill="#ffffb3" stroke="black" points="1038.94,-198 933.06,-198 933.06,-162 1038.94,-162 1038.94,-198"/>
<text text-anchor="middle" x="986" y="-175.8" font-family="Times,serif" font-size="14.00">AppComponent</text>
</g>
<!-- AppModule -->
<g id="node2" class="node">
<title>AppModule</title>
<polygon fill="#8dd3c7" stroke="black" points="603.66,-263 600.66,-267 579.66,-267 576.66,-263 520.34,-263 520.34,-227 603.66,-227 603.66,-263"/>
<text text-anchor="middle" x="562" y="-240.8" font-family="Times,serif" font-size="14.00">AppModule</text>
</g>
<!-- AppComponent&#45;&gt;AppModule -->
<g id="edge1" class="edge">
<title>AppComponent&#45;&gt;AppModule</title>
<path fill="none" stroke="black" d="M986,-198.29C986,-220.21 986,-254 986,-254 986,-254 613.82,-254 613.82,-254"/>
<polygon fill="black" stroke="black" points="613.82,-250.5 603.82,-254 613.82,-257.5 613.82,-250.5"/>
</g>
<!-- AppComponent  -->
<g id="node5" class="node">
<title>AppComponent </title>
<polygon fill="#80b1d3" stroke="black" points="485.44,-328 376.56,-328 376.56,-292 485.44,-292 485.44,-328"/>
<text text-anchor="middle" x="431" y="-305.8" font-family="Times,serif" font-size="14.00">AppComponent </text>
</g>
<!-- AppModule&#45;&gt;AppComponent  -->
<g id="edge4" class="edge">
<title>AppModule&#45;&gt;AppComponent </title>
<path fill="none" stroke="black" stroke-dasharray="1,5" d="M520.11,-256C499.97,-256 480.14,-256 480.14,-256 480.14,-256 480.14,-281.72 480.14,-281.72"/>
<polygon fill="black" stroke="black" points="476.64,-281.72 480.14,-291.72 483.64,-281.72 476.64,-281.72"/>
</g>
<!-- AppServerModule -->
<g id="node8" class="node">
<title>AppServerModule</title>
<polygon fill="#8dd3c7" stroke="black" points="214.19,-263 211.19,-267 190.19,-267 187.19,-263 93.81,-263 93.81,-227 214.19,-227 214.19,-263"/>
<text text-anchor="middle" x="154" y="-240.8" font-family="Times,serif" font-size="14.00">AppServerModule</text>
</g>
<!-- AppModule&#45;&gt;AppServerModule -->
<g id="edge7" class="edge">
<title>AppModule&#45;&gt;AppServerModule</title>
<path fill="none" stroke="black" d="M520.25,-242C520.25,-242 224.44,-242 224.44,-242"/>
<polygon fill="black" stroke="black" points="224.44,-238.5 214.44,-242 224.44,-245.5 224.44,-238.5"/>
</g>
<!-- AppRoutingModule -->
<g id="node3" class="node">
<title>AppRoutingModule</title>
<polygon fill="#8dd3c7" stroke="black" points="909.27,-198 906.27,-202 885.27,-202 882.27,-198 780.73,-198 780.73,-162 909.27,-162 909.27,-198"/>
<text text-anchor="middle" x="845" y="-175.8" font-family="Times,serif" font-size="14.00">AppRoutingModule</text>
</g>
<!-- AppRoutingModule&#45;&gt;AppModule -->
<g id="edge2" class="edge">
<title>AppRoutingModule&#45;&gt;AppModule</title>
<path fill="none" stroke="black" d="M845,-198.11C845,-217.34 845,-245 845,-245 845,-245 613.76,-245 613.76,-245"/>
<polygon fill="black" stroke="black" points="613.76,-241.5 603.76,-245 613.76,-248.5 613.76,-241.5"/>
</g>
<!-- ErrorModule -->
<g id="node4" class="node">
<title>ErrorModule</title>
<polygon fill="#8dd3c7" stroke="black" points="762.58,-198 759.58,-202 738.58,-202 735.58,-198 673.42,-198 673.42,-162 762.58,-162 762.58,-198"/>
<text text-anchor="middle" x="718" y="-175.8" font-family="Times,serif" font-size="14.00">ErrorModule</text>
</g>
<!-- ErrorModule&#45;&gt;AppModule -->
<g id="edge3" class="edge">
<title>ErrorModule&#45;&gt;AppModule</title>
<path fill="none" stroke="black" d="M718,-198.03C718,-214.4 718,-236 718,-236 718,-236 613.81,-236 613.81,-236"/>
<polygon fill="black" stroke="black" points="613.81,-232.5 603.81,-236 613.81,-239.5 613.81,-232.5"/>
</g>
<!-- AppHttpInterceptor -->
<g id="node6" class="node">
<title>AppHttpInterceptor</title>
<ellipse fill="#fdb462" stroke="black" cx="562" cy="-180" rx="87.38" ry="18"/>
<text text-anchor="middle" x="562" y="-175.8" font-family="Times,serif" font-size="14.00">AppHttpInterceptor</text>
</g>
<!-- AppHttpInterceptor&#45;&gt;AppModule -->
<g id="edge5" class="edge">
<title>AppHttpInterceptor&#45;&gt;AppModule</title>
<path fill="none" stroke="black" d="M562,-198.11C562,-198.11 562,-216.99 562,-216.99"/>
<polygon fill="black" stroke="black" points="558.5,-216.99 562,-226.99 565.5,-216.99 558.5,-216.99"/>
</g>
<!-- PushNotificationService -->
<g id="node7" class="node">
<title>PushNotificationService</title>
<ellipse fill="#fdb462" stroke="black" cx="351" cy="-180" rx="105.37" ry="18"/>
<text text-anchor="middle" x="351" y="-175.8" font-family="Times,serif" font-size="14.00">PushNotificationService</text>
</g>
<!-- PushNotificationService&#45;&gt;AppModule -->
<g id="edge6" class="edge">
<title>PushNotificationService&#45;&gt;AppModule</title>
<path fill="none" stroke="black" d="M429.8,-192.21C429.8,-208.41 429.8,-235 429.8,-235 429.8,-235 510.17,-235 510.17,-235"/>
<polygon fill="black" stroke="black" points="510.17,-238.5 520.17,-235 510.17,-231.5 510.17,-238.5"/>
</g>
<!-- AppServerModule&#45;&gt;AppComponent  -->
<g id="edge8" class="edge">
<title>AppServerModule&#45;&gt;AppComponent </title>
<path fill="none" stroke="black" stroke-dasharray="1,5" d="M214.32,-249C288.06,-249 403.17,-249 403.17,-249 403.17,-249 403.17,-281.7 403.17,-281.7"/>
<polygon fill="black" stroke="black" points="399.67,-281.7 403.17,-291.7 406.67,-281.7 399.67,-281.7"/>
</g>
<!-- UniversalInterceptor -->
<g id="node9" class="node">
<title>UniversalInterceptor</title>
<ellipse fill="#fdb462" stroke="black" cx="115" cy="-180" rx="90.87" ry="18"/>
<text text-anchor="middle" x="115" y="-175.8" font-family="Times,serif" font-size="14.00">UniversalInterceptor</text>
</g>
<!-- UniversalInterceptor&#45;&gt;AppServerModule -->
<g id="edge9" class="edge">
<title>UniversalInterceptor&#45;&gt;AppServerModule</title>
<path fill="none" stroke="black" d="M149.92,-196.74C149.92,-196.74 149.92,-216.72 149.92,-216.72"/>
<polygon fill="black" stroke="black" points="146.42,-216.72 149.92,-226.72 153.42,-216.72 146.42,-216.72"/>
</g>
<!-- ErrorPageComponent -->
<g id="node10" class="node">
<title>ErrorPageComponent</title>
<polygon fill="#ffffb3" stroke="black" points="787.08,-122 648.92,-122 648.92,-86 787.08,-86 787.08,-122"/>
<text text-anchor="middle" x="718" y="-99.8" font-family="Times,serif" font-size="14.00">ErrorPageComponent</text>
</g>
<!-- ErrorPageComponent&#45;&gt;ErrorModule -->
<g id="edge10" class="edge">
<title>ErrorPageComponent&#45;&gt;ErrorModule</title>
<path fill="none" stroke="black" d="M703.15,-122.01C703.15,-122.01 703.15,-151.85 703.15,-151.85"/>
<polygon fill="black" stroke="black" points="699.65,-151.85 703.15,-161.85 706.65,-151.85 699.65,-151.85"/>
</g>
<!-- SharedModule -->
<g id="node11" class="node">
<title>SharedModule</title>
<polygon fill="#8dd3c7" stroke="black" points="909.42,-122 906.42,-126 885.42,-126 882.42,-122 810.58,-122 810.58,-86 909.42,-86 909.42,-122"/>
<text text-anchor="middle" x="860" y="-99.8" font-family="Times,serif" font-size="14.00">SharedModule</text>
</g>
<!-- SharedModule&#45;&gt;ErrorModule -->
<g id="edge11" class="edge">
<title>SharedModule&#45;&gt;ErrorModule</title>
<path fill="none" stroke="black" d="M860,-122.11C860,-131.9 860,-142 860,-142 860,-142 732.85,-142 732.85,-142 732.85,-142 732.85,-151.89 732.85,-151.89"/>
<polygon fill="black" stroke="black" points="729.35,-151.89 732.85,-161.89 736.35,-151.89 729.35,-151.89"/>
</g>
<!-- HomeModule -->
<g id="node13" class="node">
<title>HomeModule</title>
<polygon fill="#8dd3c7" stroke="black" points="1275.76,-198 1272.76,-202 1251.76,-202 1248.76,-198 1182.24,-198 1182.24,-162 1275.76,-162 1275.76,-198"/>
<text text-anchor="middle" x="1229" y="-175.8" font-family="Times,serif" font-size="14.00">HomeModule</text>
</g>
<!-- SharedModule&#45;&gt;HomeModule -->
<g id="edge14" class="edge">
<title>SharedModule&#45;&gt;HomeModule</title>
<path fill="none" stroke="black" d="M909.35,-104C968.17,-104 1058.61,-104 1058.61,-104 1058.61,-104 1058.61,-180 1058.61,-180 1058.61,-180 1171.99,-180 1171.99,-180"/>
<polygon fill="black" stroke="black" points="1171.99,-183.5 1181.99,-180 1171.99,-176.5 1171.99,-183.5"/>
</g>
<!-- HomePageComponent -->
<g id="node12" class="node">
<title>HomePageComponent</title>
<polygon fill="#ffffb3" stroke="black" points="1545.26,-122 1402.74,-122 1402.74,-86 1545.26,-86 1545.26,-122"/>
<text text-anchor="middle" x="1474" y="-99.8" font-family="Times,serif" font-size="14.00">HomePageComponent</text>
</g>
<!-- HomePageComponent&#45;&gt;HomeModule -->
<g id="edge12" class="edge">
<title>HomePageComponent&#45;&gt;HomeModule</title>
<path fill="none" stroke="black" d="M1474,-122.01C1474,-144.49 1474,-180 1474,-180 1474,-180 1285.95,-180 1285.95,-180"/>
<polygon fill="black" stroke="black" points="1285.95,-176.5 1275.95,-180 1285.95,-183.5 1285.95,-176.5"/>
</g>
<!-- HomeRoutingModule -->
<g id="node14" class="node">
<title>HomeRoutingModule</title>
<polygon fill="#8dd3c7" stroke="black" points="1379.38,-122 1376.38,-126 1355.38,-126 1352.38,-122 1240.62,-122 1240.62,-86 1379.38,-86 1379.38,-122"/>
<text text-anchor="middle" x="1310" y="-99.8" font-family="Times,serif" font-size="14.00">HomeRoutingModule</text>
</g>
<!-- HomeRoutingModule&#45;&gt;HomeModule -->
<g id="edge13" class="edge">
<title>HomeRoutingModule&#45;&gt;HomeModule</title>
<path fill="none" stroke="black" d="M1258.22,-122.01C1258.22,-122.01 1258.22,-151.85 1258.22,-151.85"/>
<polygon fill="black" stroke="black" points="1254.72,-151.85 1258.22,-161.85 1261.72,-151.85 1254.72,-151.85"/>
</g>
<!-- EntitiesService -->
<g id="node15" class="node">
<title>EntitiesService</title>
<ellipse fill="#fdb462" stroke="black" cx="1148" cy="-104" rx="69.49" ry="18"/>
<text text-anchor="middle" x="1148" y="-99.8" font-family="Times,serif" font-size="14.00">EntitiesService</text>
</g>
<!-- EntitiesService&#45;&gt;HomeModule -->
<g id="edge15" class="edge">
<title>EntitiesService&#45;&gt;HomeModule</title>
<path fill="none" stroke="black" d="M1199.81,-116.21C1199.81,-116.21 1199.81,-151.86 1199.81,-151.86"/>
<polygon fill="black" stroke="black" points="1196.31,-151.86 1199.81,-161.86 1203.31,-151.86 1196.31,-151.86"/>
</g>
</g>
</svg>
